<?xml version="1.0" standalone="no"?>
<!DOCTYPE svg PUBLIC "-//W3C//DTD SVG 1.1//EN" "http://www.w3.org/Graphics/SVG/1.1/DTD/svg11.dtd" >
<!--
2013-9-30: Created.
-->
<svg>
<metadata>
Created by iconfont
</metadata>
<defs>

<font id="iconfont" horiz-adv-x="1024" >
  <font-face
    font-family="iconfont"
    font-weight="500"
    font-stretch="normal"
    units-per-em="1024"
    ascent="896"
    descent="-128"
  />
    <missing-glyph />
    
    <glyph glyph-name="zaixiantongji-01" unicode="&#59098;" d="M943.445333 401.066667v142.506666a68.266667 68.266667 0 0 1-66.730666 66.730667h-66.56a68.266667 68.266667 0 0 1-66.56-66.730667v-44.714666A280.746667 280.746667 0 0 0 943.445333 401.066667zM676.864 494.421333V739.157333a68.266667 68.266667 0 0 1-66.56 66.56h-66.730667A68.266667 68.266667 0 0 1 477.866667 739.157333v-398.848a280.917333 280.917333 0 0 0 198.997333 154.112zM943.445333 28.501333v7.68A280.576 280.576 0 0 0 477.866667 96.938667v-68.266667h-66.56V414.890667a68.266667 68.266667 0 0 1-66.56 66.56h-67.584a68.266667 68.266667 0 0 1-66.56-66.56v-386.389334h-44.373334V805.888a68.266667 68.266667 0 0 1-66.730666 66.56 68.266667 68.266667 0 0 1-66.56-66.730667v-839.338666a68.266667 68.266667 0 0 1 66.56-66.730667H938.666667a68.266667 68.266667 0 0 1 66.56 66.730667 60.928 60.928 0 0 1-17.066667 44.373333 61.610667 61.610667 0 0 1-44.714667 17.749333zM827.562667 136.533333l1.194666 1.194667a140.629333 140.629333 0 0 1-199.168 0 17.066667 17.066667 0 0 1 24.064-24.064l1.194667-1.194667A106.325333 106.325333 0 0 0 802.133333 110.933333l1.024 1.024m-74.24-21.162666a32.597333 32.597333 0 1 1 22.869334-9.557334 32.426667 32.426667 0 0 1-22.869334 9.557334zM958.464 269.653333v0.853334a324.266667 324.266667 0 0 1-457.557333 0 17.066667 17.066667 0 1 1 24.064-25.088 287.232 287.232 0 0 0 405.845333 0 17.066667 17.066667 0 0 1 25.258667 23.210666z m-68.266667-66.56a228.010667 228.010667 0 0 1-322.56 0l0.853334-0.853333a17.066667 17.066667 0 1 1 24.064-25.088 190.976 190.976 0 0 0 270.336 0 17.066667 17.066667 0 0 1 25.258666 23.722667z m0 0"  horiz-adv-x="1024" />

    
    <glyph glyph-name="duorenshipin-01" unicode="&#59097;" d="M632.32 465.92a212.138667 212.138667 0 0 0 197.802667 2.56 200.704 200.704 0 0 1 43.008 131.754667c-2.389333 48.981333-34.133333 136.533333-134.997334 136.533333h-5.802666a144.384 144.384 0 0 1-55.637334-10.410667c20.309333-63.488 44.544-177.664-44.373333-260.437333zM347.136 379.904a127.658667 127.658667 0 0 1 30.208 12.629333c17.066667 10.24 30.72 31.573333-1.706667 57.685334-106.666667 146.090667-68.266667 242.688-51.2 279.210666a134.826667 134.826667 0 0 1-46.933333 8.192h-6.144c-102.4 0-129.706667-87.722667-131.584-136.533333-1.024-116.736 74.24-162.474667 74.24-162.474667a42.496 42.496 0 0 0 4.608-24.064 34.133333 34.133333 0 0 0-7.509333-19.626666C168.789333 361.984 28.672 328.704 18.773333 258.901333a196.608 196.608 0 0 1-1.706666-59.904c23.210667-17.066667 96.768-30.549333 96.768-30.549333a354.304 354.304 0 0 1 12.117333 46.250667c10.581333 42.666667 71.168 111.786667 221.184 165.205333zM521.216 279.04a211.968 211.968 0 0 0 48.469333 135.168v2.218667a52.565333 52.565333 0 0 0 5.802667 29.525333s95.061333 48.469333 93.354667 201.728c-2.389333 61.098667-42.325333 170.666667-165.717334 170.666667h-6.997333c-128.512 0-163.328-109.056-165.546667-170.666667-1.706667-144.554667 93.184-201.728 93.184-201.728a53.418667 53.418667 0 0 0 11.605334-34.133333c0-4.949333-9.216-15.36-15.018667-19.626667-52.736-39.936-243.2-80.213333-256-166.4-9.728-36.522667-66.048-94.208 121.685333-117.76a1809.92 1809.92 0 0 1 217.258667-10.24c43.690667 0 82.090667 0 115.882667 2.218667a212.48 212.48 0 0 0-97.962667 179.029333zM997.546667 259.413333c-3.754667 26.282667-26.624 47.274667-55.978667 65.024a211.968 211.968 0 0 0-22.186667-149.333333 262.826667 262.826667 0 0 1 78.848 24.405333 190.976 190.976 0 0 1-0.682666 59.904zM772.778667 320.341333a54.954667 54.954667 0 1 1-77.824-77.824 55.296 55.296 0 0 1 77.824 0 51.2 51.2 0 0 1 16.213333 39.082667 52.394667 52.394667 0 0 1-16.213333 38.912z m88.234666-113.664a148.138667 148.138667 0 0 1-53.589333 202.24 147.114667 147.114667 0 0 1-147.456 0 148.821333 148.821333 0 0 1-53.248-202.24A141.653333 141.653333 0 0 1 648.533333 160.085333c-21.333333-6.656-34.133333-15.701333-34.133333-25.6 0-20.309333 53.589333-36.693333 119.466667-36.693333s119.466667 17.066667 119.466666 36.693333c0 10.069333-13.312 19.114667-34.133333 25.770667a139.946667 139.946667 0 0 1 42.325333 46.421333zM682.666667 332.8a73.557333 73.557333 0 1 0 51.2-125.269333 71.68 71.68 0 0 0-51.2 21.504A73.386667 73.386667 0 0 0 682.666667 332.8z m0 0"  horiz-adv-x="1024" />

    
    <glyph glyph-name="chengzuofenxi" unicode="&#59083;" d="M659.456 812.71466667c49.152 0 90.112-42.32533333 90.112-92.84266667 0-51.88266667-40.96-92.84266667-90.112-92.84266667-49.152 0-90.112 42.32533333-90.112 92.84266667-1.36533333 50.51733333 39.59466667 92.84266667 90.112 92.84266667zM492.88533333 353.96266667l51.88266667 187.05066666c15.01866667 55.97866667 60.07466667 79.18933333 113.32266667 62.80533334 43.69066667-13.65333333 68.26666667-60.07466667 55.97866666-105.13066667l-60.07466666-212.992c-10.92266667-40.96-45.056-61.44-84.65066667-61.44h-245.76c-4.096 0-6.82666667-2.73066667-8.192-6.82666667l-50.51733333-237.568c-13.65333333-53.248-109.22666667-31.40266667-96.93866667 21.84533334l62.80533333 293.54666666c2.73066667 24.576 24.576 45.056 49.152 45.056h193.87733334c9.55733333-1.36533333 15.01866667 2.73066667 19.11466666 13.65333334zM359.08266667 83.62666666999996h267.60533333c60.07466667 0 116.05333333 40.96 131.072 98.304l107.86133333 423.25333333c10.92266667 42.32533333-72.36266667 58.70933333-83.28533333 17.74933333L675.84 248.832c-6.82666667-27.30666667-19.11466667-51.88266667-49.152-51.88266667H359.08266667c-40.96 0-40.96-113.32266667 0-113.32266666z m0 0"  horiz-adv-x="1024" />

    
    <glyph glyph-name="dianzhaotiaodu" unicode="&#59084;" d="M402.7625 649.23720703c21.15 7.7625 13.46220703 12.9375 27.86220703 60.00029297 5.92558594 23.5125 38.66308594 27.26279297 38.66308594 27.26279297a252.225 252.225 0 0 0 47.1375 4.98691406 278.96220703 278.96220703 0 0 0 44.24941406-5.47470703s32.55029297-4.1625 37.08808594-27.675c7.7625-48.41279297 2.39941406-53.58691406 24.33691406-60.22529297 77.81308594-21.33720703 96.67529297-0.52470703 99.48779297 4.65029297a85.46220703 85.46220703 0 0 1-48.18779297 95.66279297A321.26220703 321.26220703 0 0 1 516.6125 792.375a313.12529297 313.12529297 0 0 1-159.37470703-42.3c-45-25.91279297-64.87558594-72.74970703-52.50058594-96.37470703 2.5875-5.32529297 17.70029297-26.25029297 98.02529297-4.46308594z m501.89941406-195.75h-12.03662109l-41.88779297-11.62441406-41.81220703 98.96220703a94.01220703 94.01220703 0 0 1-83.85029297 52.49970703H311.975a94.20029297 94.20029297 0 0 1-83.85029297-52.49970703l-41.88691406-98.96220703-41.88779297 11.62441406H132.3125a38.1375 38.1375 0 0 1-35.96220703-34.91191406V395.25a46.4625 46.4625 0 0 1 47.88720703-46.53808594l-6.00029297-11.62441406a330.6375 330.6375 0 0 1-23.92470703-104.77441406v-203.73837891a46.4625 46.4625 0 0 1 47.88720703-46.53720703h53.8875a46.575 46.575 0 0 1 47.88808594 46.53808594v52.49970703h496.83691406v-52.50058594a46.4625 46.4625 0 0 1 47.88808594-46.53720703h53.8875a46.575 46.575 0 0 1 47.88720703 46.53808594V232.31132811999998a333.45 333.45 0 0 1-23.92470703 104.77529297l5.99941406 11.62529297h6.00029297a41.92470703 41.92470703 0 0 1 41.88779297 46.53720703v23.32529297a37.9125 37.9125 0 0 1-35.73808594 34.875z m-676.49941406-81.41220703l65.8125 151.3125a50.02470703 50.02470703 0 0 0 47.88720703 34.91279297H707.1875a59.24970703 59.24970703 0 0 0 47.88720703-34.91279297l65.8125-151.3125c6.00029297-17.39970703 0-34.91279297-23.92470703-34.91279297H246.1625c-18 5.70058594-29.925 17.325-18 34.91279297z m143.73720703-197.96220703a15.6375 15.6375 0 0 0-17.92441406-17.40058594H228.1625a15.60058594 15.60058594 0 0 0-17.92529297 17.40058594v58.23720703a18.74970703 18.74970703 0 0 0 17.92529297 17.39970703h125.70029297a15.60058594 15.60058594 0 0 0 17.92441406-17.39970703v-58.23720703z m460.98808594 0a15.6375 15.6375 0 0 0-17.92529297-17.40058594H689.14970703a15.60058594 15.60058594 0 0 0-17.92441406 17.40058594v58.23720703a15.6375 15.6375 0 0 0 17.92441406 17.39970703h125.70029297a15.60058594 15.60058594 0 0 0 17.92529297-17.39970703v-58.23720703z"  horiz-adv-x="1024" />

    
    <glyph glyph-name="guijihuifang" unicode="&#59085;" d="M725.46875 482.43750027a804.9375 804.9375 0 0 0-55.40625027-81.98437527q-37.96875-50.90624973-114.75-148.35937473-76.359375 98.15624973-113.62499946 149.06249946A797.06250027 797.06250027 0 0 0 385.4375 482.43750027h1.12499973a196.87499973 196.87499973 0 1 0 338.765625 0z m-168.75-12.37500027a112.49999973 112.49999973 0 1 1-111.51562527 112.49999973 112.49999973 112.49999973 0 0 1 111.51562527-112.49999973z m0 0M703.39062473 61.96874973000001h98.43750027a37.26562527 37.26562527 0 0 1 0 74.53125054h-590.625a99.28125027 99.28125027 0 0 0 0 198.42187446H371.37499973v-62.015625H210.92187527a37.26562527 37.26562527 0 0 1 0-74.39062446h590.625a99.28125027 99.28125027 0 0 0 0-198.56250054h-590.625V61.96874973000001z m0 0"  horiz-adv-x="1024" />

    
    <glyph glyph-name="duochejiankong" unicode="&#59086;" d="M969.27999969 500.95999969a58.39999969 58.39999969 0 0 1-66.87999938 48c-5.59999969 0-15.04000031 10.56-18.24 18.24q-26.4 68.95999969-50.4 138.72c-8.64 28.00000031-59.20000031 66.88000031-100.00000031 72.80000062a1618.87999969 1618.87999969 0 0 1-310.08 0C368 774.07999969 336.00000031 774.40000031 320.96 718.7200003099999c-1.75999969-5.76 134.08000031 7.99999969 214.72000031 0 184.15999969-18.40000031 215.20000031-79.99999969 262.23999938-243.04000031 28.15999969-3.36 59.20000031-39.84 68.48000062-61.44q38.23999969-89.76-14.24000062-118.72000031v-144a86.4 86.4 0 0 1 64.00000031 0 64.00000031 64.00000031 0 0 1 13.44 37.28000062V414.24a417.6 417.6 0 0 1-5.44000031 48.79999969l44.80000031 12.64000031a52.00000031 52.00000031 0 0 1 0.31999969 25.27999969zM633.44 69.76000031000001c0.96-21.91999969-5.59999969-45.12 17.44000031-60.32000062a359.83999969 359.83999969 0 0 1 126.24 2.56000031 65.76 65.76 0 0 1 13.27999969 37.44V64.00000031000002a200.95999969 200.95999969 0 0 0-71.68000031-13.44 197.92000031 197.92000031 0 0 0-85.27999969 19.2zM307.68000031 580.4800003099999a1333.92 1333.92 0 0 0 281.43999938 0 69.12 69.12 0 0 0 64.00000031-57.6c6.24-24.96 14.23999969-49.92 22.87999969-75.84a209.59999969 209.59999969 0 0 0 42.88000031 4.63999969c5.92000031 0 11.68000031 0 17.44000031-0.79999969-14.56000031 38.23999969-28.63999969 76.8-41.92000031 115.51999969a83.68000031 83.68000031 0 0 1-58.24000031 56.64 744.31999969 744.31999969 0 0 1-115.83999938 25.12000031 1293.91999969 1293.91999969 0 0 1-168.96 0c-30.24-3.36-52.48000031-6.40000031-66.88000031-8.96000062a135.36 135.36 0 0 1-118.24000031-100.63999969 1143.84 1143.84 0 0 0-39.36-111.04000031c-2.71999969-7.2-11.83999969-16.96000031-15.99999938-16.95999938-40.48000031 3.52000031-56.32000031-21.6-68.16-54.24A51.67999969 51.67999969 0 0 1 41.76000031 336l41.76-11.35999969c-2.23999969-59.52-2.23999969-118.39999969-2.24000062-177.44000062 0-31.99999969 0-62.71999969 2.24000062-96a75.04000031 75.04000031 0 0 1 14.23999969-43.2 365.59999969 365.59999969 0 0 1 129.28000031 0c8.64 3.36 12.96 49.75999969 20.47999969 77.44000031h356.32000031a199.99999969 199.99999969 0 0 0-42.08000062 288.96 1205.92000031 1205.92000031 0 0 0-384 20.95999969c16.00000031 44.64 30.55999969 86.56000031 46.40000062 128.00000062 13.44 37.92 31.84000031 52.63999969 83.52 57.12z m-44.48000062-328.48000031c7.99999969-3.67999969 16.96000031-18.72 15.04000031-24.79999969a39.84 39.84 0 0 0-25.60000031-20.00000062 186.88000031 186.88000031 0 0 0-42.24-2.4l2.08000031 0.80000062a603.84 603.84 0 0 0-61.60000031 6.87999938c-25.44 5.76-33.43999969 25.27999969-25.44 60.64000031 3.84 24 22.72000031 25.27999969 39.36 19.51999969a877.75999969 877.75999969 0 0 0 98.4-40.63999969zM708.96000031 396.31999969a117.91999969 117.91999969 0 1 1 114.39999938-117.91999969 116.16 116.16 0 0 1-114.39999938 117.91999969z m0-181.44a64.00000031 64.00000031 0 1 0 61.59999938 64.00000031 62.56000031 62.56000031 0 0 0-61.59999938-64.00000031zM708.96000031 239.03999999999996a39.36 39.36 0 1 0 38.07999938 39.36 38.71999969 38.71999969 0 0 0-38.07999938-39.36zM708.96000031 148.32000000000005a117.28000031 117.28000031 0 0 1 82.23999938 28.8l28.00000031-26.23999969c-21.43999969-19.51999969-62.71999969-31.99999969-110.23999969-32.00000062s-90.07999969 13.75999969-112.00000031 33.76000031l27.67999969 26.71999969a115.99999969 115.99999969 0 0 1 83.68000031-30.24z"  horiz-adv-x="1024" />

    
    <glyph glyph-name="tiaoduyizhangtu" unicode="&#59087;" d="M880.99999973 70.125H555.875v36.56249973h315.5625a41.06250027 41.06250027 0 0 1 41.06250027 41.06250027v576.56249973a40.921875 40.921875 0 0 1-41.06250027 40.921875H158.18750027a40.921875 40.921875 0 0 1-41.06250027-41.48437446v-576.56250054a41.06250027 41.06250027 0 0 1 41.06250027-41.06249946h315.5625v-36.56250054H163.53125a41.06250027 41.06250027 0 0 1 0-81.98437446h717.1875a41.06250027 41.06250027 0 0 1 0 81.98437446zM620.70312473 564.42187473h173.53125027a41.06250027 41.06250027 0 0 0 0-81.98437446H620.70312473a41.06250027 41.06250027 0 1 0 0 81.98437446z m-2.953125-158.34374946h173.53125027a41.06250027 41.06250027 0 0 0 0-81.98437527H617.74999973a41.06250027 41.06250027 0 1 0 0 81.98437527zM343.25 344.20312473a14.06250027 14.06250027 0 0 0-1.12499973-5.76562473 10.96875 10.96875 0 0 0-3.65625054-5.0625 12.37500027 12.37500027 0 0 0-5.76562473-3.23437473 12.65625 12.65625 0 0 0-6.04687527 0 130.50000027 130.50000027 0 0 0-56.24999946 18.5625 170.57812527 170.57812527 0 0 0-37.40625054 30.375 151.17187527 151.17187527 0 0 0-21.37499973 28.82812446l-6.46875027 12.51562554-0.98437446 3.09374946a145.40624973 145.40624973 0 0 0-4.07812554 80.71875027 162.56250027 162.56250027 0 0 0 26.43750054 55.40625027 135.421875 135.421875 0 0 0 33.75 32.34374973c16.453125 10.26562527 16.875 10.40624973 17.43749946 10.68750027a247.78125027 247.78125027 0 0 0 33.18750054 9.42187446 157.21874973 157.21874973 0 0 0 31.35937446 3.23437554 114.75 114.75 0 0 0 68.90625027-19.828125 177.609375 177.609375 0 0 0 42.1875-42.1875A174.51562473 174.51562473 0 0 0 475.99999973 510.5625c5.20312527-15.46874973 6.18749973-18.5625 6.46875027-19.68749973a11.53125027 11.53125027 0 0 0 0-6.89062527 23.76562527 23.76562527 0 0 0-2.109375-5.20312527v-0.70312473a21.09375 21.09375 0 0 0-4.640625-3.23437473 14.06250027 14.06250027 0 0 0-5.76562473-1.54687554H343.25z m74.39062527-61.45312473c-17.85937527-3.375-17.99999973-3.375-18.84375054-3.375a12.51562473 12.51562473 0 0 0-5.484375 0.84375 11.8125 11.8125 0 0 0-4.92187473 2.953125 11.67187473 11.67187473 0 0 0-3.796875 5.20312527 14.06250027 14.06250027 0 0 0-1.12499973 5.76562473V412.12499973a14.06250027 14.06250027 0 0 0 4.49999973 10.40625054 15.46874973 15.46874973 0 0 0 10.125 3.65624973h119.10937527a15.46874973 15.46874973 0 0 0 10.26562446-4.07812473 14.06250027 14.06250027 0 0 0 4.50000054-10.40625054 23.06249973 23.06249973 0 0 0 0-3.09374946v-0.84375a143.57812527 143.57812527 0 0 0-28.12500054-70.31250054 160.03125027 160.03125027 0 0 0-44.15624973-38.53124946 133.87500027 133.87500027 0 0 0-41.48437527-16.03125z m0 0"  horiz-adv-x="1024" />

    
    <glyph glyph-name="shipinzhongxin" unicode="&#59088;" d="M456.59374973 632.62500027l-121.921875 140.62499946H196.29687473l122.20312554-140.62499946z m359.29687554 0l-122.34375 140.62499946h-138.375l122.20312473-140.62499946z m-179.43750027 0l-122.34375 140.62499946h-138.375l122.20312473-140.62499946z m231.609375 140.62499946h-133.03125027l122.34375-140.62499946h64.546875V720.09374973a52.734375 52.734375 0 0 1-53.85937473 52.59375054zM154.81250027 772.68750027h-5.34375054A52.3125 52.3125 0 0 1 95.46874973 720.09374973v-87.46874946h181.54687527zM95.89062473 54.37499973000001a52.17187473 52.17187473 0 0 1 54-52.59374973h718.17187527a52.17187473 52.17187473 0 0 1 53.85937473 52.59374973V597.32812473H95.89062473zM383.18749973 440.25000027c0 29.953125 25.3125 44.01562527 53.85937554 44.01562446a55.12499973 55.12499973 0 0 0 28.12499973-7.03124973l204.75000027-115.73437527a48.65625027 48.65625027 0 0 0 0-87.328125L465.59375 158.01562527a52.3125 52.3125 0 0 0-28.12499973-7.03125054c-28.12499973 0-53.85937473 14.06250027-53.85937554 44.01562527z m0 0"  horiz-adv-x="1024" />

    
    <glyph glyph-name="jiankongzhongxin" unicode="&#59089;" d="M364.64 423.67999969a34.24000031 34.24000031 0 1 1 33.43999969-34.23999938 33.91999969 33.91999969 0 0 1-33.43999969 34.23999938zM630.08 537.76000031c-3.67999969 11.04-9.12 18.88000031-21.91999969 19.03999969H403.52c-12.79999969 0-18.24-7.99999969-21.91999969-19.03999969L351.99999969 461.11999969h307.36000031zM904.80000031 751.99999969H116.96a79.99999969 79.99999969 0 0 1-79.99999969-78.72v-473.43999938a79.03999969 79.03999969 0 0 1 79.99999969-77.60000062H432.00000031v-79.99999969h-157.60000031a38.4 38.4 0 0 1-39.36-39.36 39.04000031 39.04000031 0 0 1 39.36-39.36h473.11999969a39.19999969 39.19999969 0 0 1 39.36 39.36 38.56000031 38.56000031 0 0 1-39.36 39.36h-157.44v79.99999969h314.72000062a79.03999969 79.03999969 0 0 1 79.99999969 77.60000062V674.0800003100001a79.99999969 79.99999969 0 0 1-79.99999969 77.91999938zM742.23999969 278.88h-43.68v-31.99999969c0-49.60000031-59.20000031-49.12000031-59.19999938 0v31.99999969H372.32v-31.99999969c0-49.12000031-59.20000031-49.60000031-59.20000031 0v31.99999969h-43.68v126.24a54.07999969 54.07999969 0 0 0 42.72 53.59999969l38.88 99.20000062a52.48000031 52.48000031 0 0 0 52.96000031 35.04h55.36000031s17.92000031 41.44000031 27.03999938 41.43999938h39.52000031c9.12 0 27.04000031-41.44000031 27.04000031-41.43999938H608a52.8 52.8 0 0 0 53.11999969-35.04l38.72000062-99.20000062a54.07999969 54.07999969 0 0 0 42.72-53.76zM647.19999969 423.67999969a34.24000031 34.24000031 0 1 1 33.44000062-34.23999938 33.91999969 33.91999969 0 0 1-33.44000062 34.23999938z"  horiz-adv-x="1024" />

    
    <glyph glyph-name="yingjichuzhi" unicode="&#59090;" d="M494.933 773.12l-389.12-174.08L512 428.373l395.947 167.254L494.933 773.12zM921.6 561.4929999999999L535.893 394.24v-399.36l81.92 40.96L737.28 244.053c6.827 13.654 27.307 13.654 34.133 0l58.027-102.4 85.333 44.374V561.4929999999999h6.827zM102.4 175.78700000000003L488.107-5.1200000000000045V394.24L102.4 554.6669999999999v-378.88z m119.467 245.76l153.6-71.68v-54.614l-153.6 71.68v54.614zM897.707 1.7069999999999936l-61.44 105.813-58.027 102.4c-6.827 13.653-27.307 13.653-34.133 0L624.64 1.7069999999999936c-6.827-13.654 3.413-30.72 17.067-30.72h242.346c10.24 0 20.48 17.066 13.654 30.72zM757.76 15.360000000000014c-10.24 0-17.067 6.827-17.067 17.067s6.827 17.066 17.067 17.066 17.067-6.826 17.067-17.066S768 15.360000000000014 757.76 15.360000000000014z m0 47.787c-3.413 0-6.827 0-10.24 3.413s-6.827 6.827-6.827 13.653v71.68c0 10.24 6.827 17.067 17.067 17.067s17.067-6.827 17.067-17.067v-71.68c0-10.24-6.827-17.066-17.067-17.066z"  horiz-adv-x="1024" />

    
    <glyph glyph-name="shebeiweixiu" unicode="&#59091;" d="M859.55000029 93.90000028999998a62.84999971 62.84999971 0 0 1-53.1 5.09999942l-111.45000058 64.65000058a36.29999971 36.29999971 0 0 0 23.70000058 29.99999971 24.3 24.3 0 0 1 9.29999971 42.45000029 37.05000029 37.05000029 0 0 0 2.40000029 54 24.14999971 24.14999971 0 0 1-4.95 43.2 36.45 36.45 0 0 0-15.00000029 51.59999971 24.14999971 24.14999971 0 0 1-19.35 38.99999971 37.19999971 37.19999971 0 0 0-25.35000029 15.00000029 36.74999971 36.74999971 0 0 0-5.85 28.95000029 24.59999971 24.59999971 0 0 1-31.19999942 30.74999942 36.29999971 36.29999971 0 0 0-43.95000058 31.5 24.75 24.75 0 0 1-38.84999942 20.85000029 38.09999971 38.09999971 0 0 0-52.2 15.75 25.2 25.2 0 0 1-43.95000058 5.85 38.40000029 38.40000029 0 0 0-54.74999971-1.64999971 25.04999971 25.04999971 0 0 1-43.2-8.25000029 37.05000029 37.05000029 0 0 0-50.55000029-19.19999971 24.59999971 24.59999971 0 0 1-37.94999942-21.6 37.50000029 37.50000029 0 0 0-13.65000029-26.25000029 36.74999971 36.74999971 0 0 0-28.50000029-7.80000029 24.59999971 24.59999971 0 0 1-28.8-33.3 35.55 35.55 0 0 0-3.74999942-29.09999971 35.84999971 35.84999971 0 0 0-24.00000029-16.65 24.3 24.3 0 0 1-16.04999971-40.79999971A36.15000029 36.15000029 0 0 0 153.95000029 339 35.55 35.55 0 0 0 136.99999971 315.89999971a24.00000029 24.00000029 0 0 1-1.64999971-43.2A35.55 35.55 0 0 0 140.59999971 219.00000029a24.00000029 24.00000029 0 0 1 12.75000029-41.55000029A36.60000029 36.60000029 0 0 0 175.85 159a35.84999971 35.84999971 0 0 0 1.05000029-29.99999971 24.45000029 24.45000029 0 0 1 25.34999942-35.70000029 36.29999971 36.29999971 0 0 0 37.95000029-38.25 24.59999971 24.59999971 0 0 1 35.39999971-25.80000029 37.64999971 37.64999971 0 0 0 49.05-24.14999971 24.59999971 24.59999971 0 0 1 42.15000058-12.44999971 38.25 38.25 0 0 0 54-6.60000058 24.59999971 24.59999971 0 0 1 43.79999942 1.65000058 37.35 37.35 0 0 0 53.25000029 10.8 25.04999971 25.04999971 0 0 1 41.4 14.99999942 37.64999971 37.64999971 0 0 0 47.09999971 27.45 24.59999971 24.59999971 0 0 1 33.75 28.35 37.35 37.35 0 0 0 9.30000058 29.7l114.75-66.44999971a63.15000029 63.15000029 0 0 1 29.99999971-43.2 64.95000029 64.95000029 0 0 1 87.75 22.34999971 60.00000029 60.00000029 0 0 1-22.79999971 82.35zM600.49999971 219.00000029l-82.64999971 48.29999942a78.00000029 78.00000029 0 0 1-38.85000029 65.7 81.45 81.45 0 0 1-83.54999971-1.64999971l45-26.70000029a34.04999971 34.04999971 0 0 0 11.54999971-46.94999942 35.39999971 35.39999971 0 0 0-47.25-13.20000029l-45 26.55a78.59999971 78.59999971 0 0 1 38.85000029-73.19999971 80.55 80.55 0 0 1 77.55000029-1.65000058l80.24999942-46.49999942A181.05000029 181.05000029 0 0 0 257.90000029 233.99999971a177.00000029 177.00000029 0 0 0 129.15 215.25000029 181.64999971 181.64999971 0 0 0 219.29999942-127.19999971A182.85000029 182.85000029 0 0 0 600.49999971 219.00000029z m39.6-23.25000058l-16.79999942 10.05000029a197.25000029 197.25000029 0 0 1 6.75 123.00000029 206.70000029 206.70000029 0 0 1-251.40000058 146.39999942 202.79999971 202.79999971 0 0 1-147.74999942-247.79999971 207.74999971 207.74999971 0 0 1 347.69999971-91.50000029l16.80000029-10.04999942a222.75 222.75 0 0 0-108.9-63.15000029A225 225 0 0 0 212.00000029 222.89999999999998a222.14999971 222.14999971 0 0 0 162.45 271.05000029 226.05000029 226.05000029 0 0 0 275.09999942-160.50000058 212.55000029 212.55000029 0 0 0-9.45-137.25z m216-173.84999942l-29.99999971-16.50000058-28.64999971 16.50000058v33.75l29.99999971 16.65 28.64999971-16.65zM579.34999971 617.7000002899999l15.00000029-9a55.95000029 55.95000029 0 0 0 23.55000029-40.80000058l0.9-17.39999971a21.6 21.6 0 0 1 27-20.85000029l17.1 4.35000058a56.54999971 56.54999971 0 0 0 45-12.30000029l12.6-11.7a21.15 21.15 0 0 1 33.75 4.20000029l9.29999971 14.99999942a56.85000029 56.85000029 0 0 0 41.4 23.4l17.70000029 0.75000058A22.05 22.05 0 0 1 844.39999971 579.00000029l-4.34999971 16.49999971a54.9 54.9 0 0 0 12.75000029 45l11.84999942 12.44999971a20.7 20.7 0 0 1-4.19999942 33.3l-15.00000029 9.15000029a55.05000029 55.05000029 0 0 0-23.55000029 40.65000029l-0.9 17.55a21.6 21.6 0 0 1-27 20.7l-16.79999942-4.05a64.05000029 64.05000029 0 0 0-45 13.34999971l-12.6 11.54999971a21.15 21.15 0 0 1-33.75-4.19999942l-10.20000058-15.00000029a57.15 57.15 0 0 0-41.4-23.24999971h-17.69999942a21.44999971 21.44999971 0 0 1-21.00000058-26.70000029l4.20000029-16.49999971a54.9 54.9 0 0 0-12.75000029-45l-11.84999942-12.45000058a22.05 22.05 0 0 1 5.09999942-34.2z m141.00000029 107.39999971A71.55 71.55 0 1 0 647.74999971 654a72.15000029 72.15000029 0 0 0 72.60000029 71.55z m0 0"  horiz-adv-x="1024" />

    
    <glyph glyph-name="gongxiangbaosong" unicode="&#59092;" d="M338.53042793 337.01336288000005c2.9269123-1.50246621 6.09097479-2.53063203 9.25426484-3.40121268h0.15835761c5.69546699-1.74038887 11.62808418-2.9269123 18.03577425-2.92691232h358.48766325c34.09323692 0 69.76773262 23.57288361 83.2945633 55.68780898l68.89715195 186.04702951c7.59344101 17.87664413 6.48648262 36.22836114-2.76855469 50.22949218-9.33382988 14.07992362-25.78680039 22.1484375-45.24624824 22.1484375h-36.78222657c0 37.09816933-30.05859375 67.3151207-67.23632812 67.31512071H545.45980645c0 37.17773438-30.05859375 67.31589317-67.23632814 67.31589317H366.29553985c-37.01937676 0-67.23632813-30.13815879-67.23632812-67.31589317v-314.11199571c0-27.21124649 16.29538537-50.3878498 39.47198868-60.98699569z m20.96191406 49.359684l69.13430214 186.20538711c6.09097479 14.31707382 25.86636543 27.44762422 41.60788536 27.44762421H828.72296524c4.82488631 0 7.43508339-1.26531601 7.98894882-2.13512421 0.47430038-0.79101563 0.63343049-3.63836289-1.50323868-8.86030198L766.07514572 402.98514747c-6.09097479-14.39663887-25.86636543-27.44839668-41.60788536-27.44839669H365.89925957c-5.45754433 0-7.59344101 1.50323868-7.98894883 2.1358967-0.31671524 0.47430038-0.87058067 3.00570487 1.58203125 8.70117188z m540.89632988-124.74331856c-12.02359199 15.66195488-38.91735078 28.7137127-93.65655898-3.63836289 5.06280899 22.78109552-12.89262772 36.86101913-34.25082207 36.86101914-18.984375 0-40.97445488-4.82488631-58.53515625-22.62273789-25.15414238 33.30144882-51.02050781 29.26757813-101.4871502-2.05710411-19.22152521-11.86523438-36.14956855-22.1484375-48.80504609-29.26757812-3.3231926-1.89797403-6.09174729-3.4012127-8.70194433-4.82488633 4.90445137-1.02816582 9.88769531-1.89874649 15.4248047-1.89874649 70.79589844 0 126.64206505 0 126.64206503-61.54086112 0-47.2237873-54.81800079-60.74984551-83.76886368-61.38250352H482.33691406c-53.94742012 0-106.78710938 56.32046699-106.78710937 56.320467s62.33187676-25.70800781 106.78710937-25.70800781h130.75472832c0.15835762 0 53.31476212 2.05633163 53.31476211 30.61168669 0 26.18308067-14.39663887 30.7708168-95.87124824 30.77081682-53.23519707 0-107.02425957 31.40347479-107.02425957 31.4034748s-53.86862753 39.39242363-70.40039063 49.7551918c-39.15527344 24.44191933-70.40039063 47.6980877-138.7444496 20.72399141C211.17691231 288.05073166 116.4921875 243.99023437999995 116.4921875 243.99023437999995l87.17007637-193.79882813 44.45523262 28.8720703c24.60027695 15.5831623 38.12633515 18.35171699 70.00488281 1.8987465 30.69047929-15.8203125 125.37597655-65.02163887 148.94808768-76.57093048 72.7734375-35.27898788 103.86019707-3.63836289 138.98159981 16.61132813C636.03186798 38.247379300000034 848.18164063 178.96936797 870.4088707 194.78968047c34.96304513 24.52148438 45.80011369 46.03726387 29.97980117 66.84082032z"  horiz-adv-x="1024" />

    
    <glyph glyph-name="zhuancheshuju" unicode="&#59093;" d="M886.07855034 232.34052084999996H847.96534729a9.88769531 9.88769531 0 0 1-4.98015403-1.47388458l-17.1868229 54.04088975c-5.500803 30.74146271-26.19312287 45.55523873-51.57746315 45.55523873H613.03447915c-29.19573784 0-46.92174911-19.90130424-51.57823564-45.53747178l-17.18605042-54.22010422a10.10398865 10.10398865 0 0 1-5.26828765 1.58125878h-38.07612419a10.8586979 10.8586979 0 0 1-10.60609817-11.09198571v-9.61732864a10.8586979 10.8586979 0 0 1 10.60609817-11.09275818l14.41826821-2.57080078a72.25201607 72.25201607 0 0 1-7.15544702-32.30572701l-5.3215885-63.80267143c0-1.88793182 0.12591362-3.77509117 0.3599739-5.62671662a18.61667633 18.61667633 0 0 1-0.3599739-3.59587669v-76.58483505c-0.05407333-10.87646484 8.41381072-19.72131728 18.9125347-19.77539063h28.89060974c10.48095703 0.05407333 18.93030166 8.89892578 18.87622834 19.77539063v24.62963104h248.25299263v-24.62963104c-0.0355339-10.87646484 8.43157768-19.72131728 18.91253471-19.77539063h28.89060974c5.03345489 0.01853943 9.85138894 2.12121963 13.39241983 5.82447053 3.55957031 3.70402336 5.53710938 8.7197113 5.50157546 13.93315315v76.69220925c0 1.20506287-0.10814667 2.40935325-0.34143447 3.59587669a54.11195754 54.11195754 0 0 1 0.35920142 5.62671661L879.1579361 165.69822693000003a72.25201607 72.25201607 0 0 1-7.15544701 32.39610672l14.1131401 2.48042107a10.46319008 10.46319008 0 0 1 7.49610901 3.27220917 11.23566628 11.23566628 0 0 1 3.09222222 7.820549v9.61732864a11.21789932 11.21789932 0 0 1-3.07445526 7.82054902 10.44465066 10.44465066 0 0 1-7.51464844 3.27220916l-0.01776695-0.03630638z m-311.87567711 11.34381295l12.58363724 35.0742817 0.17998695 0.827322c1.25913621 7.08360672 4.08099174 8.34197044 8.19828987 13.82500649h197.25025177c4.20690537-5.64525605 6.7954731-7.06506728 7.94646263-13.7531662l12.78139115-35.95490456 4.7283268-19.54210282c-1.04284287-14.29235459-17.47341157-25.58209419-31.15473748-25.58209418H600.68335723c-13.68055343 0-30.0763607 11.2897396-31.19104385 25.58209418l4.71055985 19.52356339z m8.82708549-166.72353744a28.90837669 28.90837669 0 0 0-26.91307068 18.29996109 30.74146271 30.74146271 0 0 0 6.11260415 32.73754119 28.20696831 28.20696831 0 0 0 31.55101775 6.61625863c10.84015847-4.62018013 17.90599823-15.56848525 17.90599824-27.72185327 0.0355339-7.91015625-2.96630859-15.4958725-8.34274292-21.10559463a28.27880859 28.27880859 0 0 0-20.31380654-8.82708549z m160.00067712 22.11213111a8.75524522 8.75524522 0 0 0-8.61156464-8.89892578H654.13098526a8.75524522 8.75524522 0 0 0-8.50341797 8.89892578v25.02436638c0 4.87200737 3.77509117 8.84485244 8.50341797 8.89892578h80.3606987c4.72755432 0 8.57448578-3.99061203 8.57448577-8.89892578v-25.02436638h-0.05407333z m61.30371094-22.11290359a28.90837669 28.90837669 0 0 0-26.93083765 18.319273 30.74146271 30.74146271 0 0 0 6.11260415 32.71900176 28.20696831 28.20696831 0 0 0 31.55101776 6.63402558c10.84015847-4.63794709 17.90599823-15.56848525 17.90599823-27.72185325a30.38148879 30.38148879 0 0 0-8.32420349-21.12336159c-5.39342881-5.60894966-12.6917839-8.79077912-20.314579-8.8270855zM478.97509766 133.30212022a176.03960037 176.03960037 0 0 0 0.86285591 13.0517578l4.87200737 45.77075958-3.10998916 0.41327478c-8.88115883 0.01853943-16.09067917 7.47911453-16.10844612 16.68394087V230.74072265999996c0.01853943 9.20482636 7.22728729 16.66540147 16.10844611 16.68316841l33.72631073-2.96630859 21.87807084 64.03673171c1.88793182 5.24897575 5.1956749 13.986454 7.46134757 19.05621529 5.33935547 11.86523438 13.93238068 19.2895031 28.26026916 22.25581169h131.70410156l-0.68286895 344.34362412c-0.10814667 42.55339622-33.38487625 77.01587677-74.48138237 77.14179038H193.97541238c-41.07873917-0.12591362-74.35546875-34.58839417-74.48060991-77.14179038v-538.57349396c0.12514114-42.55339622 33.40187073-77.01587677 74.49914933-77.14256286h283.63317489l1.34797097 54.86821174zM206.8834896 597.66382598c0.03630638 16.37804032 12.83623696 29.62755203 28.63878252 29.68162537h303.69592665c15.80254555-0.05407333 28.58470916-13.30358506 28.63801004-29.66308594-0.0355339-16.36027336-12.83546448-29.62755203-28.63801003-29.66308594h-303.71446609c-15.80177307 0.0355339-28.58393669 13.30281258-28.63801003 29.66308594z m5.28528215-148.89015197c0.03630638 15.02929688 11.79339409 27.19965935 26.30126953 27.23596573h251.52597427c14.50710297-0.03630638 26.24642373-12.20666885 26.30049706-27.23596572v-4.85424043c-0.0355339-15.02929688-11.79339409-27.20043182-26.30126954-27.25373268H238.47004128c-14.50710297 0.05407333-26.26496316 12.22443581-26.30126953 27.23596574v4.87200737z m225.33130645-160.61247825c-0.0355339-15.02929688-11.77485466-27.20043182-26.2827301-27.23596574H239.890625c-14.50787544 0.0355339-26.24719619 12.20666885-26.30126953 27.23596574v4.85424042c0.05407333 15.02929688 11.79339409 27.19965935 26.30126953 27.25373267h171.32749558c14.50710297-0.05407333 26.24642373-12.22443581 26.28273009-27.25373267v-4.85424042z"  horiz-adv-x="1024" />

    
    <glyph glyph-name="zhuapaishuju" unicode="&#59094;" d="M767.27634621 466.26948738C756.03295517 562.18399429 710.02659035 632.09386253 653.54853821 631.96794892l-261.30861283-0.60562134c-56.52208328-0.16994477-102.18315125-70.24975777-113.0395317-166.25155449-39.69755173-23.86101723-60.16508103-72.4845314-60.03839493-128.74551774 0.08342743-41.80177688 11.5886879-79.22052383 33.72862816-105.48625945L253.10460282 137.58009338l102.69762038 0.2564621-0.13132095 54.63183402 336.45509721 0.81418993 0.13132095-54.63106156 102.64972686 0.2533722-0.21397591 93.25641631c22.01402664 26.34916306 33.34547996 63.85906219 33.25819016 105.65620422-0.12282371 56.14202499-20.85067749 104.76553916-60.67491531 128.45274926zM392.36661147 595.74345017l261.27230645 0.60175896c36.39135361 0.08265495 68.27685356-49.69571113 80.33984185-117.24875451a124.80279923 124.80279923 0 0 1-17.46954918 2.14748383c0 0.16994477 0.17380715 0.47121048 0.04712104 0.42717933-49.18510437-0.08265495-33.81900787-0.08265495-68.41049193-0.17380714-34.63088035-0.08265495-22.48909951 0-56.98865892-0.08265495l-252.68623351-0.64115525c-9.13993836 0-17.80943871-0.98876953-26.04789734-2.70521164 11.83742524 67.63956069 43.55298042 117.59250641 79.94356155 117.67516137z m-67.84890174-305.98400117c-22.48909951-0.08342743-40.68632126 20.85453987-40.76897621 46.77652359-0.04403115 25.83469391 18.06667328 46.90707207 40.51174164 46.95110322 22.40180969 0.08265495 40.59903144-20.85531235 40.68168641-46.77729607 0.04789353-25.96524238-18.06667328-46.90707207-40.42445184-46.95110321z m316.97170257 8.83944512l-235.64772605-0.30126572c-36.73433303-0.12591362-37.50603676 63.90309334-0.1266861 63.98961067l235.60446739 0.59712411c34.37750816 0.0911522 34.50419426-64.19895172 0.16994476-64.28546906zM860.10249328 37.930664060000026V186.24609375h49.01129723v-197.75390625H713.0755539v49.43847656h147.02539444z m49.00743485 692.13867188v-148.31542969h-49.01129722V730.06933594H713.0755539V779.5078125h196.03360176v-49.43847656zM173.97136879 37.930664060000026h147.02539444v-49.43847656H124.96470643V186.24609375h49.01129721v-148.31542969z m0 692.13867188v-148.31542969H124.96393394V779.5078125h196.03746415v-49.43847656H173.97136879z m548.88605118-439.36901093c-22.44506836-0.08342743-40.63842773 20.85453987-40.68245889 46.78038597-0.08651734 25.87795258 18.02341462 46.94646835 40.4646206 46.98972703s40.64229011-20.89857101 40.68632125-46.81978227-18.06358338-46.90320968-40.46848296-46.9511032z"  horiz-adv-x="1026" />

    
    <glyph glyph-name="quanxianguanli" unicode="&#59095;" d="M146.90225791 122.48127366000006c32.08016396 27.15871811 69.12580491 44.42896843 108.63332749 59.23810958 34.58453179 12.34880447 69.16983604 24.69760895 101.24922752 39.55078125 34.58530427 14.80991363 42.01189041 46.88930512 24.69760896 81.47460938a77.21208572 77.21208572 0 0 1-22.19246865 27.1587181c-27.15794563 22.23649978-42.01189041 49.39444541-51.85555457 81.47460937a77.65162468 77.65162468 0 0 1-32.12419512 46.93333626c-29.61905479 19.77539063-34.58453179 49.39444541-32.07939147 81.51864052 0 12.30477334 4.92144585 22.19246865 17.27025033 24.69760895 19.77539063 4.92144585 19.77539063 19.77539063 22.23649978 32.07939148 2.46033668 9.88769531 2.46033668 17.2710228 4.92144585 27.15871811C302.46892166 710.20588303 376.56020355 776.87057876 465.46217156 779.33168792c96.32778168 2.50514031 175.34128189-59.23810959 192.61230468-150.60041426l7.42658616-44.4722271c-2.46110916-4.92221833 0-12.3055458 9.88769531-14.80991365 17.27025032-4.92144585 22.19246865-19.77539063 24.69683646-34.58453177 2.46110916-34.58530427-14.8531723-64.16032791-49.39444541-74.09205436-83.93494606-27.15794563-123.48572731-88.90119553-133.37342263-175.34205437-7.38332749-83.93571853-2.46110916-165.45358658-4.92221832-249.38930513-2.46110916-29.66308594-12.34880447-42.01189041-42.0118904-42.01189041H193.83559417c-32.07939148 0-64.20358658 19.77539063-71.63017272 42.01189041-12.34880447 29.61905479-2.46110916 64.16032791 24.69683646 86.44008638zM613.64550781 216.3046875c9.88769531 0 14.80991363 2.46110916 14.80991364 14.80991363V287.93486023c4.92144585 61.7432499 39.55078125 101.25 91.40556335 106.17144585 66.62143708 4.92221833 111.09443664-24.69683648 125.9035778-88.90119553 4.96624946-22.23649978 4.96624946-44.42819595 2.46110918-66.66469574-2.46110916-19.77539063 4.96547698-24.69760895 22.23649978-22.23649979 29.61905479 0 37.04564094-7.42658616 37.04564094-34.58530425v-155.56589127c0-27.15871811-4.92221833-32.08093642-32.08016396-32.08093644H608.68003082c-32.08093642 0-37.04641342 4.92221833-37.04641341 37.00238228V176.79870987000004c0 34.58453179 2.50514031 39.5067501 42.0118904 39.50675011z m59.2381096 2.46110916c22.23649978-7.38332749 46.93410874 0 64.24839018-2.46110916h22.19246865c51.85555459 0 51.85555459 0 51.85555458 51.85555459 0 22.23649978-4.92221833 41.96785928-17.27102279 59.28214072-27.15794563 37.04564094-88.90119553 29.61905479-108.67658615-12.34880447-17.27025032-29.66308594-12.30477334-61.7432499-12.30477334-96.32778168z"  horiz-adv-x="1024" />

    
    <glyph glyph-name="duochezhuizong" unicode="&#59096;" d="M969.27999969 500.95999969a58.39999969 58.39999969 0 0 1-66.87999938 48c-5.59999969 0-15.04000031 10.56-18.24 18.24q-26.4 68.95999969-50.4 138.72c-8.64 28.00000031-59.20000031 66.88000031-100.00000031 72.80000062a1618.87999969 1618.87999969 0 0 1-310.08 0C368 774.07999969 336.00000031 774.40000031 320.96 718.7200003099999c-1.75999969-5.76 134.08000031 7.99999969 214.72000031 0 184.15999969-18.40000031 215.20000031-79.99999969 262.23999938-243.04000031 28.15999969-3.36 59.20000031-39.84 68.48000062-61.44q38.23999969-89.76-14.24000062-118.72000031v-144a86.4 86.4 0 0 1 64.00000031 0 64.00000031 64.00000031 0 0 1 13.44 37.28000062V414.24a417.6 417.6 0 0 1-5.44000031 48.79999969l44.80000031 12.64000031a52.00000031 52.00000031 0 0 1 0.31999969 25.27999969zM633.44 69.76000031000001c0.96-21.91999969-5.59999969-45.12 17.44000031-60.32000062a359.83999969 359.83999969 0 0 1 126.24 2.56000031 65.76 65.76 0 0 1 13.27999969 37.44V64.00000031000002a200.95999969 200.95999969 0 0 0-71.68000031-13.44 197.92000031 197.92000031 0 0 0-85.27999969 19.2zM307.68000031 580.4800003099999a1333.92 1333.92 0 0 0 281.43999938 0 69.12 69.12 0 0 0 64.00000031-57.6c6.24-24.96 14.23999969-49.92 22.87999969-75.84a209.59999969 209.59999969 0 0 0 42.88000031 4.63999969c5.92000031 0 11.68000031 0 17.44000031-0.79999969-14.56000031 38.23999969-28.63999969 76.8-41.92000031 115.51999969a83.68000031 83.68000031 0 0 1-58.24000031 56.64 744.31999969 744.31999969 0 0 1-115.83999938 25.12000031 1293.91999969 1293.91999969 0 0 1-168.96 0c-30.24-3.36-52.48000031-6.40000031-66.88000031-8.96000062a135.36 135.36 0 0 1-118.24000031-100.63999969 1143.84 1143.84 0 0 0-39.36-111.04000031c-2.71999969-7.2-11.83999969-16.96000031-15.99999938-16.95999938-40.48000031 3.52000031-56.32000031-21.6-68.16-54.24A51.67999969 51.67999969 0 0 1 41.76000031 336l41.76-11.35999969c-2.23999969-59.52-2.23999969-118.39999969-2.24000062-177.44000062 0-31.99999969 0-62.71999969 2.24000062-96a75.04000031 75.04000031 0 0 1 14.23999969-43.2 365.59999969 365.59999969 0 0 1 129.28000031 0c8.64 3.36 12.96 49.75999969 20.47999969 77.44000031h356.32000031a199.99999969 199.99999969 0 0 0-42.08000062 288.96 1205.92000031 1205.92000031 0 0 0-384 20.95999969c16.00000031 44.64 30.55999969 86.56000031 46.40000062 128.00000062 13.44 37.92 31.84000031 52.63999969 83.52 57.12z m-44.48000062-328.48000031c7.99999969-3.67999969 16.96000031-18.72 15.04000031-24.79999969a39.84 39.84 0 0 0-25.60000031-20.00000062 186.88000031 186.88000031 0 0 0-42.24-2.4l2.08000031 0.80000062a603.84 603.84 0 0 0-61.60000031 6.87999938c-25.44 5.76-33.43999969 25.27999969-25.44 60.64000031 3.84 24 22.72000031 25.27999969 39.36 19.51999969a877.75999969 877.75999969 0 0 0 98.4-40.63999969zM590.55999969 384.96h14.24000062v-56.64h-14.24000062z m226.72000031 0H831.99999969v-56.64h-14.07999938zM590.55999969 200.80000030999997h14.24000062V144h-14.24000062z m226.72000031 0H831.99999969V144h-14.07999938z m0 0M590.55999969 384.96h56.64v-14.23999969h-56.64z m184.16000062 0H831.99999969v-14.23999969h-57.27999938zM590.55999969 158.23999969h56.64V144h-56.64z m184.16000062 0H831.99999969V144h-57.27999938z m0 0M708.96000031 370.39999968999996a85.60000031 85.60000031 0 1 1 82.87999969-85.44 84.16000031 84.16000031 0 0 1-82.87999969 85.44z m0-131.52a46.08 46.08 0 1 0 44.64 46.08 45.6 45.6 0 0 0-44.64-46.08zM708.96000031 256.00000031A28.63999969 28.63999969 0 1 0 735.99999969 284.95999969 28.15999969 28.15999969 0 0 0 708.96000031 256.00000031zM708.96000031 190.55999999999995a85.27999969 85.27999969 0 0 1 59.04 20.80000031L788.96 192a124.96000031 124.96000031 0 0 0-79.99999969-23.68000031 122.71999969 122.71999969 0 0 0-80.80000031 24.48l20.16 19.36000031a83.83999969 83.83999969 0 0 1 60.64000031-21.91999969z"  horiz-adv-x="1024" />

    
    <glyph glyph-name="bofang" unicode="&#58895;" d="M108.124222-71.74740099999997L108.124222-71.74740099999997 108.124222 820.812292C108.124222 855.139649 147.091696 875.87239 176.72143 857.309611L889.069256 411.029767C916.33095 393.950546 916.33095 355.11434499999996 889.069256 338.035124L176.72143-108.24472000000003C147.091696-126.807499 108.124222-106.07475299999999 108.124222-71.74740099999997L108.124222-71.74740099999997Z"  horiz-adv-x="1024" />

    
    <glyph glyph-name="zanting" unicode="&#58994;" d="M901.110647 813.779394L122.88833 813.779394c-22.460548 0-40.667212-18.207687-40.667212-40.667212l0-778.223341c0-22.460548 18.206664-40.667212 40.667212-40.667212l778.222317 0c22.460548 0 40.667212 18.206664 40.667212 40.667212L941.777859 773.112182C941.777859 795.571706 923.571195 813.779394 901.110647 813.779394z"  horiz-adv-x="1024" />

    
    <glyph glyph-name="shuaxin" unicode="&#58880;" d="M968.60387555 529.5348243000001L762.47495111 529.5348243000001c-26.29680545 0-47.56724243 21.30660315-47.56724243 47.56954832 0 26.26076065 21.27165061 47.56724243 47.56724243 47.56724243l82.74757404 0c-74.64295538 105.47230341-197.38593659 174.41678222-336.4460468 174.41678223-227.68541392 0-412.26027615-184.57607585-412.26027616-412.2578489 0-227.6842003 184.57607585-412.25906252 412.26027616-412.25906251 227.6842003 0 412.25906252 184.57607585 412.2590625 412.25906251 0 26.26076065 21.27055835 47.56724243 47.56615017 47.56724244 26.26294518 0 47.57076195-21.30660315 47.57076196-47.56724244 0-280.22586785-227.19146667-507.39670282-507.39670281-507.39670281-280.20887703 0-507.39791645 227.16962133-507.39791645 507.39670281 0 280.22465422 227.18903941 507.39548918 507.39791645 507.39548919 170.06227911 0 320.27079111-83.84554477 412.25906251-212.30629926l0 85.45688084c0 26.26294518 21.27055835 47.56845605 47.56615017 47.56845605 26.26294518 0 47.57076195-21.30551088 47.57076195-47.56845605l0-190.27285334C1016.17451615 550.84130608 994.86439348 529.5348243000001 968.60387555 529.5348243000001Z"  horiz-adv-x="1024" />

    
    <glyph glyph-name="hld" unicode="&#58898;" d="M632.3072 768.9856H391.6928c-26.5728 0-48.128-21.5424-48.128-48.128v-673.728c0-26.5728 21.5424-48.128 48.128-48.128h240.6144c26.5728 0 48.128 21.5424 48.128 48.128V720.8576c0 26.5856-21.5552 48.128-48.128 48.128zM247.3216 672.7424c35.3408 0 72.1792-120.3072 72.1792-120.3072h24.064V696.8063999999999h-96.2432v-24.064z m0-216.5632c35.3408 0 72.1792-120.3072 72.1792-120.3072h24.064V480.2432h-96.2432v-24.064z m0-216.5504c35.3408 0 72.1792-120.3072 72.1792-120.3072h24.064V263.69280000000003h-96.2432v-24.064z m433.1136 457.1776v-144.3712h24.064s36.8512 120.3072 72.1792 120.3072v24.064h-96.2432z m0-360.9344h24.064s36.8512 120.3072 72.1792 120.3072v24.064h-96.2432V335.87199999999996z m0-216.5504h24.064s36.8512 120.3072 72.1792 120.3072v24.064h-96.2432v-144.3712zM439.8208 167.6544a72.256 72.1792 90 1 1 144.3584 0 72.256 72.1792 90 1 1-144.3584 0ZM439.8208 384.2176a72.256 72.1792 90 1 1 144.3584 0 72.256 72.1792 90 1 1-144.3584 0ZM439.8208 600.768a72.256 72.1792 90 1 1 144.3584 0 72.256 72.1792 90 1 1-144.3584 0Z"  horiz-adv-x="1024" />

    
    <glyph glyph-name="weixing" unicode="&#58904;" d="M367.142 484.143l38.678 38.678 26.163-26.162-38.678-38.679zM393.3 451c-1.8 0-3.6 0.7-4.9 2.1l-26.2 26.2c-2.7 2.7-2.7 7.2 0 9.9l38.6 38.6c1.3 1.3 3.1 2.1 4.9 2.1s3.6-0.7 4.9-2.1l26.2-26.2c2.7-2.7 2.7-7.2 0-9.9L398.3 453c-1.4-1.3-3.2-2-5-2zM377 484.2l16.3-16.3 28.7 28.7-16.3 16.3-28.7-28.7zM659.8 265.5l-29.6-29.6c-4.1-4.1-10.6-4.1-14.7 0l-17.3 17.3 44.3 44.3 17.3-17.3c4-4.1 4-10.6 0-14.7zM622.8 225.8c-4.5 0-8.9 1.7-12.3 5.1l-17.3 17.3c-2.7 2.7-2.7 7.2 0 9.9l44.3 44.3c1.3 1.3 3.1 2.1 5 2.1s3.6-0.7 5-2l17.3-17.3c6.8-6.8 6.8-17.8 0-24.6L635.2 231c-3.5-3.5-7.9-5.2-12.4-5.2zM608 253.2l12.4-12.4c1.3-1.3 3.5-1.3 4.8 0l29.6 29.6c1.3 1.3 1.3 3.5 0 4.8l-12.4 12.4-34.4-34.4zM477.6 542.3L347.5 412.2c-6.5-6.5-6.5-17.1 0-23.6l146.9-146.9c2.2-2.2 5-3.7 8-4.4l73.3-16.1c5.4-1.2 11.1 0.5 15 4.4l73.4 73.4c3.9 3.9 5.6 9.6 4.4 15l-16.1 73.3c-0.7 3-2.2 5.8-4.4 8l-146.8 147c-6.5 6.5-17.1 6.5-23.6 0zM579.2 213.9c-1.7 0-3.4 0.2-5 0.5l-73.3 16.1c-4.4 1-8.3 3.1-11.5 6.3L342.6 383.6c-4.5 4.5-6.9 10.4-6.9 16.8s2.5 12.3 6.9 16.8l130.1 130.1c9.2 9.2 24.3 9.2 33.5 0l146.8-147c3.2-3.2 5.3-7.1 6.3-11.5l16.1-73.3c1.7-7.8-0.6-15.8-6.3-21.5l-73.4-73.4c-4.4-4.3-10.3-6.7-16.5-6.7z m-89.8 326.3c-2.5 0-5-0.9-6.9-2.8l-130-130.2c-3.8-3.8-3.8-9.9 0-13.7l146.9-146.9c1.3-1.3 2.9-2.1 4.6-2.5l73.3-16.1c3.1-0.7 6.3 0.3 8.6 2.5l73.4 73.4c2.3 2.3 3.2 5.5 2.5 8.6l-16.1 73.3c-0.4 1.7-1.3 3.3-2.5 4.6L496.3 537.3c-1.9 1.9-4.4 2.9-6.9 2.9zM264.9 622.6l79.7-13.6-65.5-66zM279.1 536c-0.7 0-1.4 0.1-2.1 0.3-2.5 0.8-4.3 2.9-4.8 5.5L258 621.4c-0.4 2.2 0.3 4.5 1.9 6.2 1.6 1.6 3.9 2.4 6.1 2l79.7-13.6c2.6-0.4 4.7-2.3 5.5-4.8 0.8-2.5 0.1-5.2-1.7-7.1l-65.5-66c-1.3-1.4-3.1-2.1-4.9-2.1z m-5.6 78l10.1-56.6 46.5 46.9-56.6 9.7zM232.5 495.3l154.6 155.9c40.7-43.3 42.9-113.8 1.4-155.6-41.8-41.4-112.7-40.3-156-0.3zM311.5 457.9h-0.5c-31.3 0.1-60.9 11.6-83.3 32.3-1.4 1.3-2.2 3.1-2.2 5s0.7 3.7 2 5.1l154.6 155.9c1.3 1.3 3.2 2.1 5.1 2.1 1.9 0 3.7-0.8 5-2.2 21.1-22.4 32.9-51.9 33.4-83.1 0.5-31.7-10.9-60.9-32.2-82.3-21.3-21.1-50.3-32.8-81.9-32.8z m-68.7 37.8c19-15.3 43-23.7 68.3-23.8h0.4c27.8 0 53.4 10.2 72.1 28.7 18.5 18.7 28.5 44.3 28.1 72.2-0.4 25.2-9.2 49.2-24.8 68.2L242.8 495.7zM858.6 635.2L672.4 448.9c-3.1-3.1-8.2-3.1-11.3 0L542.3 567.6c-3.1 3.1-3.1 8.2 0 11.3l186.3 186.3c3.1 3.1 8.2 3.1 11.3 0l118.7-118.7c3.1-3.1 3.1-8.2 0-11.3zM666.7 439.6c-3.8 0-7.7 1.5-10.6 4.4L537.4 562.7c-5.8 5.8-5.8 15.4 0 21.2l186.3 186.3c5.8 5.8 15.4 5.8 21.2 0l118.7-118.7c5.8-5.8 5.8-15.4 0-21.2l-5 4.9 5-4.9L677.3 444c-2.9-2.9-6.8-4.4-10.6-4.4z m67.6 320.9c-0.3 0-0.5-0.1-0.7-0.3L547.3 574c-0.4-0.4-0.4-1 0-1.4L666 453.9c0.4-0.4 1-0.4 1.4 0l186.3 186.3c0.4 0.4 0.4 1 0 1.4L735 760.2c-0.2 0.2-0.5 0.3-0.7 0.3zM556.7 486.7l230.9 230.9M556.7 479.7c-1.8 0-3.6 0.7-5 2.1-2.7 2.7-2.7 7.2 0 9.9l230.8 230.8c2.7 2.7 7.2 2.7 9.9 0s2.7-7.2 0-9.9L561.7 481.8c-1.4-1.4-3.2-2.1-5-2.1zM566.5 603.1l130-130M696.5 466.1c-1.8 0-3.6 0.7-5 2.1l-130 130c-2.7 2.7-2.7 7.2 0 9.9s7.2 2.7 9.9 0l130-130c2.7-2.7 2.7-7.2 0-9.9-1.3-1.4-3.1-2.1-4.9-2.1zM705.3 741.9l130-130M835.3 604.9c-1.8 0-3.6 0.7-5 2.1l-130 130c-2.7 2.7-2.7 7.2 0 9.9s7.2 2.7 9.9 0l130-130c2.7-2.7 2.7-7.2 0-9.9-1.3-1.5-3.1-2.1-4.9-2.1zM254.6 31.1l186.3 186.3c3.1 3.1 3.1 8.2 0 11.3L322.1 347.4c-3.1 3.1-8.2 3.1-11.3 0L124.6 161.2c-3.1-3.1-3.1-8.2 0-11.3l118.7-118.7c3.1-3.2 8.1-3.2 11.3-0.1zM248.9 21.8c-3.8 0-7.7 1.5-10.6 4.4L119.6 144.9c-5.8 5.8-5.8 15.4 0 21.2l186.3 186.3c5.8 5.8 15.4 5.8 21.2 0l118.7-118.7c5.8-5.8 5.8-15.4 0-21.2L259.5 26.2l-4.9 5 4.9-5c-2.9-2.9-6.7-4.4-10.6-4.4z m67.6 321c-0.3 0-0.5-0.1-0.7-0.3L129.5 156.2c-0.4-0.4-0.4-1 0-1.4l118.7-118.7c0.4-0.4 1-0.4 1.4 0l186.3 186.3c0.4 0.4 0.4 1 0 1.4L317.2 342.5c-0.2 0.2-0.5 0.3-0.7 0.3zM403 333L172.2 102.2M172.2 95.2c-1.8 0-3.6 0.7-4.9 2-2.7 2.7-2.7 7.2 0 9.9L398.1 338c2.7 2.7 7.2 2.7 9.9 0s2.7-7.2 0-9.9L177.2 97.3c-1.4-1.4-3.2-2.1-5-2.1zM286.7 323.2l130-130M416.7 186.2c-1.8 0-3.6 0.7-4.9 2l-130 130c-2.7 2.7-2.7 7.2 0 9.9s7.2 2.7 9.9 0l130-130c2.7-2.7 2.7-7.2 0-9.9-1.5-1.3-3.2-2-5-2zM147.9 184.5l130-130M277.9 47.5c-1.8 0-3.6 0.7-4.9 2l-130 130c-2.7 2.7-2.7 7.2 0 9.9s7.2 2.7 9.9 0l130-130c2.7-2.7 2.7-7.2 0-9.9-1.4-1.3-3.2-2-5-2zM511.6 385.5m-62.4 0a62.4 62.4 0 1 1 124.8 0 62.4 62.4 0 1 1-124.8 0ZM511.6 316.1c-17.8 0-35.5 6.8-49.1 20.3-13.1 13.1-20.3 30.5-20.3 49.1 0 18.5 7.2 36 20.3 49.1 27.1 27.1 71.1 27.1 98.1 0 27.1-27.1 27.1-71.1 0-98.1-13.4-13.6-31.2-20.4-49-20.4z m0 124.7c-14.2 0-28.4-5.4-39.2-16.2-10.5-10.5-16.2-24.4-16.2-39.2 0-14.8 5.8-28.7 16.2-39.2 21.6-21.6 56.7-21.6 78.3 0 21.6 21.6 21.6 56.7 0 78.3-10.7 10.9-24.9 16.3-39.1 16.3zM257.5 615.2c-4.1 4.1-4.3 10.8-0.2 14.9s10.8 4 14.9-0.1 4.3-10.8 0.2-14.9-10.6-4.1-14.9 0.1zM265.1 605c-4.5 0-9 1.7-12.5 5.2-3.3 3.3-5.2 7.6-5.3 12.3-0.1 4.7 1.7 9.2 5 12.5 3.3 3.3 7.8 5.1 12.5 5.1 4.6 0 9-1.9 12.3-5.1 6.9-6.9 7-18 0.3-24.8-3.4-3.4-7.9-5.2-12.3-5.2z m-2.7 15.2c1.5-1.5 3.6-1.5 5-0.1 1.3 1.3 1.2 3.6-0.2 5-0.7 0.7-1.6 1.1-2.6 1.1-0.6 0-1.6-0.1-2.4-0.9-0.8-0.8-0.9-1.9-0.9-2.4 0.1-1.1 0.4-2 1.1-2.7z"  horiz-adv-x="1024" />

    
    <glyph glyph-name="details" unicode="&#59543;" d="M298.666667 554.666667h384v-42.666667H298.666667v42.666667z m0-128h298.666666v-42.666667H298.666667v42.666667z m0-128h298.666666v-42.666667H298.666667v42.666667z m0 469.376C298.666667 791.594667 317.824 810.666667 341.12 810.666667h341.76C706.304 810.666667 725.333333 791.509333 725.333333 768.0426669999999v-42.752A42.645333 42.645333 0 0 0 682.88 682.666667H341.12C317.696 682.666667 298.666667 701.8240000000001 298.666667 725.290667V768.0426669999999zM170.666667-42.66666699999996h682.666666c23.68 0 42.666667 19.157333 42.666667 42.773334V725.226667C896 748.906667 876.842667 768 853.205333 768h-63.296v-42.666667h63.296c0.128-0.106667 0.170667-725.333333 0.128-725.333333H170.666667V725.226667C170.752 725.290667 236.16 725.333333 236.16 725.333333V768H170.752A42.752 42.752 0 0 1 128 725.226667v-725.12A42.666667 42.666667 0 0 1 170.666667-42.66666699999996z m170.666666 768h341.333334V768H341.333333v-42.666667z"  horiz-adv-x="1024" />

    
    <glyph glyph-name="lable" unicode="&#59151;" d="M947.2 473.6l-12.8 212.8c-3.2 64-56 116.8-120 120L601.6 819.2c-36.8 1.6-72-11.2-97.6-36.8L113.6 393.6c-49.6-51.2-49.6-131.2 0-180.8l225.6-225.6c49.6-49.6 131.2-49.6 180.8 0L908.8 376c27.2 25.6 41.6 60.8 38.4 97.6z m-81.6-52.8L475.2 30.399999999999977c-25.6-25.6-65.6-25.6-91.2 0L158.4 257.6c-25.6 25.6-25.6 65.6 0 91.2l390.4 388.8c12.8 12.8 30.4 19.2 49.6 19.2L812.8 744c32-1.6 57.6-27.2 60.8-60.8l12.8-212.8c-1.6-19.2-8-36.8-20.8-49.6zM550.4 603.2c-49.6-49.6-49.6-131.2 0-180.8s131.2-49.6 180.8 0 49.6 131.2 0 180.8-131.2 49.6-180.8 0z m134.4-136c-25.6-25.6-65.6-25.6-91.2 0-25.6 25.6-25.6 65.6 0 91.2 25.6 25.6 65.6 25.6 91.2 0 25.6-25.6 25.6-65.6 0-91.2z"  horiz-adv-x="1024" />

    
    <glyph glyph-name="menu" unicode="&#59280;" d="M133.310936 599.447673l757.206115 0c19.781623 0 35.950949 16.169326 35.950949 35.950949 0 19.781623-15.997312 35.950949-35.950949 35.950949L133.310936 671.349572c-19.781623 0-35.950949-16.169326-35.950949-35.950949C97.359987 615.617 113.529313 599.447673 133.310936 599.447673zM890.51705 419.864942L133.310936 419.864942c-19.781623 0-35.950949-16.169326-35.950949-35.950949 0-19.781623 16.169326-35.950949 35.950949-35.950949l757.206115 0c19.781623 0 35.950949 16.169326 35.950949 35.950949C926.467999 403.695616 910.298673 419.864942 890.51705 419.864942zM890.51705 168.552327L133.310936 168.552327c-19.781623 0-35.950949-15.997312-35.950949-35.950949s16.169326-35.950949 35.950949-35.950949l757.206115 0c19.781623 0 35.950949 15.997312 35.950949 35.950949S910.298673 168.552327 890.51705 168.552327z"  horiz-adv-x="1024" />

    
    <glyph glyph-name="rzsh" unicode="&#58926;" d="M375.466667-25.600000000000023H136.533333c-37.546667 0-68.266667 30.72-68.266666 68.266667V759.466667c0 37.546667 30.72 68.266667 68.266666 68.266666h614.4c37.546667 0 68.266667-30.72 68.266667-68.266666v-170.666667c0-20.48-13.653333-34.133333-34.133333-34.133333s-34.133333 13.653333-34.133334 34.133333V759.466667H136.533333v-716.8h238.933334c20.48 0 34.133333-13.653333 34.133333-34.133334s-13.653333-34.133333-34.133333-34.133333zM648.533333 8.53333299999997c-64.853333 0-122.88 23.893333-167.253333 71.68S409.6 182.613333 409.6 247.46666700000003s23.893333 122.88 71.68 167.253333 102.4 71.68 167.253333 71.68 122.88-23.893333 167.253334-71.68c44.373333-44.373333 71.68-105.813333 71.68-167.253333 0-64.853333-23.893333-122.88-71.68-167.253334S713.386667 8.53333299999997 648.533333 8.53333299999997z m0 409.6c-44.373333 0-88.746667-17.066667-119.466666-51.2S477.866667 291.84000000000003 477.866667 247.46666700000003s17.066667-88.746667 51.2-119.466667S604.16 76.79999999999995 648.533333 76.79999999999995s88.746667 17.066667 119.466667 51.2S819.2 203.09333300000003 819.2 247.46666700000003s-17.066667 88.746667-51.2 119.466666c-30.72 34.133333-75.093333 51.2-119.466667 51.2zM921.6-42.66666699999996c-10.24 0-17.066667 3.413333-23.893333 10.24l-119.466667 119.466667c-13.653333 13.653333-13.653333 34.133333 0 47.786667s34.133333 13.653333 47.786667 0l119.466666-119.466667c13.653333-13.653333 13.653333-34.133333 0-47.786667-6.826667-6.826667-13.653333-10.24-23.893333-10.24zM546.133333 554.666667H238.933333c-20.48 0-34.133333 13.653333-34.133333 34.133333s13.653333 34.133333 34.133333 34.133333h307.2c20.48 0 34.133333-13.653333 34.133334-34.133333s-13.653333-34.133333-34.133334-34.133333zM341.333333 384H238.933333c-20.48 0-34.133333 13.653333-34.133333 34.133333s13.653333 34.133333 34.133333 34.133334h102.4c20.48 0 34.133333-13.653333 34.133334-34.133334s-13.653333-34.133333-34.133334-34.133333zM273.066667 213.33333300000004H238.933333c-20.48 0-34.133333 13.653333-34.133333 34.133334s13.653333 34.133333 34.133333 34.133333h34.133334c20.48 0 34.133333-13.653333 34.133333-34.133333s-13.653333-34.133333-34.133333-34.133334z"  horiz-adv-x="1024" />

    
    <glyph glyph-name="qushi" unicode="&#60499;" d="M902.0003 384a89.7 89.7 0 0 1-30.24-5.58l-136.29 204.45A104.1 104.1 0 0 1 752.0003 639a105 105 0 1 1-210 0c0-26.52 10.17-50.49 26.4-68.97l-137.37-251.85A147.21 147.21 0 0 1 392.0003 324c-29.82 0-57.51-9-80.88-24.06l-110.01 132C207.8303 444.54 212.0003 458.7 212.0003 474a90 90 0 1 1-54.96-82.92l110.82-132.99A149.37 149.37 0 0 1 242.0003 174c0-82.71 67.29-150 150-150s150 67.29 150 150c0 47.61-22.71 89.61-57.42 117.09l134.76 247.05c8.88-2.43 18.03-4.14 27.66-4.14 15.27 0 29.67 3.42 42.75 9.27l135.39-203.07A89.1 89.1 0 0 1 812.0003 294a90 90 0 1 1 90 90zM392.0003 84c-49.62 0-90 40.38-90 90s40.38 90 90 90 90-40.38 90-90-40.38-90-90-90z"  horiz-adv-x="1024" />

    
    <glyph glyph-name="exit-fullscreen" unicode="&#59805;" d="M310.826667 213.33333300000004H213.333333v42.666667h170.666667v-170.666667H341.333333v98.133334l-140.501333-140.458667L170.666667 73.17333299999996 310.826667 213.33333300000004z m359.68 0H768v42.666667h-170.666667v-170.666667h42.666667v98.133334l140.501333-140.458667 30.165334 30.165333L670.506667 213.33333300000004zM311.168 512H213.333333v-42.666667h170.666667V640H341.333333v-97.834667L200.832 682.666667 170.666667 652.5013329999999 311.168 512z m358.997333 0H768v-42.666667h-170.666667V640h42.666667v-97.834667L780.501333 682.666667l30.165334-30.165334L670.165333 512z"  horiz-adv-x="1024" />

    
    <glyph glyph-name="fullscreen" unicode="&#59809;" d="M243.2 85.33333300000004H341.333333v-42.666666H170.666667v170.666666h42.666666v-97.493333L340.693333 243.20000000000005l30.165334-30.165333L243.2 85.33333300000004z m494.933333 0H640v-42.666666h170.666667v170.666666h-42.666667v-97.493333L640.64 243.20000000000005l-30.165333-30.165333L738.133333 85.33333300000004zM243.541333 640H341.333333V682.666667H170.666667v-170.666667h42.666666V609.8346670000001l127.36-127.36 30.165334 30.165333L243.498667 640z m494.336 0H640V682.666667h170.666667v-170.666667h-42.666667V609.8346670000001l-127.36-127.36-30.165333 30.165333L737.834667 640z"  horiz-adv-x="1024" />

    
    <glyph glyph-name="weilanxinxi" unicode="&#58988;" d="M651.96477661 217.68251312999996a24.77154748 24.77154748 0 0 0-18.44689719 7.90581307L353.65210019 505.98116079a25.82565574 25.82565574 0 1 0 36.89379355 36.89379356l279.33872553-280.39283377a25.2986012 25.2986012 0 0 0 0-36.89379438 24.77154748 24.77154748 0 0 0-17.91984266-7.90581308zM933.41171945 67.99912078a105.41084024 105.41084024 0 0 0-206.60524667-26.35271026H297.78435493a105.41084024 105.41084024 0 1 0-128.07417042 128.07417041V598.2156450699999a105.41084024 105.41084024 0 1 0 128.07417041 128.07417042h427.96800961a105.41084024 105.41084024 0 1 0 128.07417041-128.07417041v-427.96800961A105.41084024 105.41084024 0 0 0 933.41171945 67.99912078zM775.2954595 700.46415976a52.7054197 52.7054197 0 1 1 105.41084024 0 52.7054197 52.7054197 0 0 1-105.41084024 0zM195.53584024 647.75874005a52.7054197 52.7054197 0 1 1 0 105.41084025 52.7054197 52.7054197 0 0 1 0-105.41084024z m52.7054197-579.75961927a52.7054197 52.7054197 0 1 1-105.41084024 0 52.7054197 52.7054197 0 0 1 105.41084024 0z m49.01604044 26.35270945h427.96801044a105.41084024 105.41084024 0 0 0 75.36874987 75.3687507V598.2156450699999a105.41084024 105.41084024 0 0 0-75.36874987 75.36875071H297.78435493a105.41084024 105.41084024 0 0 0-75.36875071-75.3687507v-427.96800961a105.41084024 105.41084024 0 0 0 75.3687507-75.3687507zM880.70629975 67.99912078a52.7054197 52.7054197 0 1 1-52.70542054-52.70542052 52.7054197 52.7054197 0 0 1 52.70542053 52.70542053z"  horiz-adv-x="1024" />

    
    <glyph glyph-name="xitongyunzhuanqingkuang" unicode="&#58929;" d="M555.03 351.411L379.14 504.245c-4.622 4.4-10.871 7.106-17.756 7.106-14.228 0-25.763-11.534-25.763-25.763 0-3.946 0.89-7.683 2.476-11.026l-0.06-0.044 0.574-0.976c0.349-0.659 0.728-1.3 1.132-1.923l118.295-201.072c10.903-20.09 32.181-33.729 56.645-33.729 35.571 0 64.407 28.836 64.407 64.407 0 20.291-9.394 38.381-24.06 50.186zM927.179 341.095c0.064 3.006 0.104 6.016 0.104 9.033 0 55.605-10.897 109.565-32.391 160.379-20.752 49.064-50.454 93.122-88.281 130.949s-81.885 67.529-130.949 88.282c-50.814 21.493-104.773 32.39-160.379 32.39s-109.565-10.897-160.379-32.39c-49.064-20.752-93.122-50.455-130.949-88.282s-67.529-81.885-88.282-130.949c-21.493-50.814-32.39-104.773-32.39-160.379 0-3.016 0.04-6.025 0.104-9.031a32.44 32.44 0 0 1-0.104-2.466c0-1.465 0.107-2.905 0.298-4.318 1.987-53.249 14.026-104.718 35.87-153.217 23.177-51.458 56.132-96.929 97.95-135.15a31.884 31.884 0 0 1 21.58-8.38c8.673 0 17.317 3.505 23.629 10.411 11.923 13.045 11.014 33.286-2.031 45.209-35.348 32.308-63.196 70.728-82.773 114.193-14.285 31.717-23.596 64.958-27.848 99.252H224.8c17.673 0 32 14.327 32 32s-14.327 32-32 32h-56.902c4.92 85.243 40.44 164.698 101.312 225.57 55.891 55.891 127.45 90.413 204.77 99.5v-60.798c0-17.673 14.327-32 32-32 17.673 0 32 14.327 32 32V697.38c84.411-5.399 163.027-40.829 223.376-101.178 60.872-60.872 96.392-140.327 101.312-225.57h-56.902c-17.673 0-32-14.327-32-32s14.327-32 32-32h54.841c-4.203-33.9-13.352-66.778-27.361-98.17-19.265-43.167-46.697-81.417-81.535-113.689-12.966-12.011-13.739-32.257-1.729-45.222s32.256-13.74 45.222-1.729c41.216 38.181 73.679 83.452 96.486 134.558 21.48 48.13 33.327 99.171 35.296 151.94 0.19 1.411 0.297 2.849 0.297 4.313 0 0.828-0.042 1.648-0.104 2.462z"  horiz-adv-x="1024" />

    
    <glyph glyph-name="gonglve" unicode="&#59195;" d="M447.924744-32.016126c-1.204099 0-2.408198 0.172014-3.440282 0.172014L157.908953-0.021502c-51.948261 1.032085-93.919704 43.691584-93.919704 95.983874L63.989249 704.032253c0 52.980346 43.175542 95.983874 95.983874 95.983874 1.204099 0 2.408198-0.172014 3.440282-0.172014l286.575508-31.82261c51.948261-1.032085 93.919704-43.691584 93.919704-95.983874l0-607.897867C543.908618 11.159415 500.90509-32.016126 447.924744-32.016126zM158.424996 736.026877c-17.029397-0.860071-30.446498-14.793214-30.446498-31.994625l0-607.897867c0-17.717453 14.449185-31.994625 31.994625-31.994625 1.204099 0 2.408198-0.172014 3.440282-0.172014l286.059466-31.82261c17.029397 0.860071 30.446498 14.793214 30.446498 31.994625L479.919368 672.037628c0 17.545439-14.449185 31.994625-31.994625 31.994625-1.204099 0-2.408198 0.172014-3.440282 0.172014L158.424996 736.026877zM609.101965-28.231816c-16.169326 0-29.930455 12.040988-31.82261 28.554342-2.064169 17.545439 10.664875 33.370737 28.382328 35.262893l254.752898 28.382328c1.204099 0.172014 2.236183 0.172014 3.440282 0.172014 17.717453 0 31.994625 14.277171 31.994625 31.994625L895.849488 704.032253c0 17.201411-13.589115 31.134554-30.446498 31.994625l-253.032757-28.0383c-17.201411-2.064169-33.370737 10.664875-35.262893 28.382328-2.064169 17.545439 10.664875 33.370737 28.382328 35.262893l255.096926 28.382328c1.032085 0.172014 2.236183 0.172014 3.440282 0.172014 52.980346 0 95.983874-43.175542 95.983874-95.983874L960.010751 96.134386c0-52.29229-41.971443-94.951789-93.919704-95.983874l-253.204771-28.210314C611.510163-28.231816 610.306064-28.231816 609.101965-28.231816zM408.01747 538.038636l-208.137074 0c-17.717453 0-31.994625 14.277171-31.994625 31.994625 0 17.717453 14.277171 31.994625 31.994625 31.994625l208.137074 0c17.717453 0 31.994625-14.277171 31.994625-31.994625C440.012095 552.487821 425.734924 538.038636 408.01747 538.038636zM407.845456 353.467495 199.536368 353.467495c-17.717453 0-31.994625 14.277171-31.994625 31.994625 0 17.717453 14.277171 31.994625 31.994625 31.994625l208.137074 0c17.717453 0 31.994625-14.277171 31.994625-31.994625C439.840081 367.744667 425.562909 353.467495 407.845456 353.467495zM408.01747 169.584411l-208.137074 0c-17.717453 0-31.994625 14.277171-31.994625 31.994625 0 17.717453 14.277171 31.994625 31.994625 31.994625l208.137074 0c17.717453 0 31.994625-14.277171 31.994625-31.994625C440.012095 183.861582 425.734924 169.584411 408.01747 169.584411zM823.947589 537.178565 615.810516 537.178565c-17.717453 0-31.994625 14.277171-31.994625 31.994625 0 17.717453 14.277171 31.994625 31.994625 31.994625l208.137074 0c17.717453 0 31.994625-14.277171 31.994625-31.994625C855.942214 551.455737 841.665043 537.178565 823.947589 537.178565zM823.947589 352.435411l-208.137074 0c-17.717453 0-31.994625 14.277171-31.994625 31.994625 0 17.717453 14.277171 31.994625 31.994625 31.994625l208.137074 0c17.717453 0 31.994625-14.277171 31.994625-31.994625C855.942214 366.884596 841.493029 352.435411 823.947589 352.435411zM823.947589 168.552327 615.810516 168.552327c-17.717453 0-31.994625 14.277171-31.994625 31.994625s14.277171 31.994625 31.994625 31.994625l208.137074 0c17.717453 0 31.994625-14.277171 31.994625-31.994625S841.665043 168.552327 823.947589 168.552327z"  horiz-adv-x="1024" />

    
    <glyph glyph-name="yichangguanli" unicode="&#58989;" d="M1024.1 640l-512 256-511.1-255.5-1 0L0 128l512-256 512 256.1L1024 640 1024.1 640 1024.1 640zM512.1 827.8l375.5-187.7-136.5-68.3-375.5 187.7L512.1 827.8zM955.8 162.2l-409.6-204.8 0 87.9c-11.2-1.5-22.5-2.5-34.1-2.5s-22.9 1-34.1 2.5l0-87.9-409.6 204.8 0 443.7 259.5-129.7c15.6 16.2 33.4 30.2 52.8 41.9l-244 122 170.7 85.3 375.5-187.7-39.2-19.6c19.4-11.7 37.2-25.7 52.8-41.9l259.5 129.7L956 162.2zM512.1 503.5c-113.1 0-204.8-91.7-204.8-204.8 0-113.1 91.7-204.8 204.8-204.8s204.8 91.7 204.8 204.8C716.9 411.8 625.2 503.5 512.1 503.5zM487.6 424.8l48.4 0c13.7 0 7.7-39.4 7.7-39.4l0 0-8.1-106.2c-0.3-4-3.7-7.1-7.7-7.1l-32.3 0c-4.1 0-7.4 3.1-7.7 7.1l-8.1 106.2 0 0C479.9 385.4 472.9 424.8 487.6 424.8zM511.9 176.3c-20.3 0-36.7 16.3-36.7 36.4 0 20.1 16.5 36.4 36.7 36.4 20.3 0 36.7-16.3 36.7-36.4C548.6 192.6 532.1 176.3 511.9 176.3z"  horiz-adv-x="1025" />

    
    <glyph glyph-name="chepai" unicode="&#59656;" d="M912.031 671.422H111.969c-22.463 0-47.055-15.83-47.055-38.586V137.83c0-22.769 18.174-41.253 40.643-41.253h812.881c22.427 0 40.649 18.484 40.649 41.253V632.836c-0.004 22.757-24.628 38.586-47.056 38.586z m0-526.936H111.969V623.521h800.062v-479.035z m-564.75 263.468l94.123-143.708h47.065V503.76h-47.065v-143.708L347.281 503.76h-47.062v-239.514h47.062V407.954z m447.072-95.369h-41.984v-44.411h41.984v44.411zM617.65 264.224c32.171 0 57.852 10.564 77.083 31.695 19.212 21.131 28.827 50.38 28.827 87.784 0 37.73-9.679 67.161-29.044 88.359-19.387 21.153-45.197 31.743-77.479 31.743-17.813 0-33.569-3.047-47.209-9.152-10.676-4.844-20.307-11.94-28.3-20.853-8.613-9.389-15.431-19.978-20.393-31.765-6.687-16.025-10.011-35.834-10.011-59.439 0-36.875 9.596-65.82 28.827-86.836 19.211-21.017 45.113-31.536 77.699-31.536z m-11.525 191.635c55.975 0.552 70.645-20.869 71.737-71.048 1.169-53.755-17.286-74.161-71.737-72.66-35.246 0.968-49.431 19.541-49.431 72.038 0 43.156 28.112 71.456 49.431 71.67z"  horiz-adv-x="1024" />

    
    <glyph glyph-name="qiye" unicode="&#58990;" d="M831.808 26.816V724.832l-97.856 65.312-356.704-159.2v-123.2l-197.12-68.64v-412.288H160v-48.992h64.352V410.528l261.472 85.696v-518.4h181.024V30.88h-40.224V504.416l-94.912 57.152-106.24-36.992V602.4l257.472 114.304v-738.848H864v48.992h-32.192v-0.032zM256.544 300.32L445.6 361.536v81.632l-189.056-65.312v-77.536z m0-106.144L445.6 235.008V316.64l-189.056-48.992v-73.472z m0-110.208L445.6 108.48v81.632l-189.056-28.576v-77.568z m0-106.112l189.056 4.096v81.632l-189.056-8.192v-77.536z"  horiz-adv-x="1024" />

    
    <glyph glyph-name="a-right" unicode="&#58925;" d="M312.888889-99.55555600000002c-17.066667 0-28.444444 5.688889-39.822222 17.066667-22.755556 22.755556-17.066667 56.888889 5.688889 79.644445l364.088888 329.955555c11.377778 11.377778 17.066667 22.755556 17.066667 34.133333 0 11.377778-5.688889 22.755556-17.066667 34.133334L273.066667 708.266667c-22.755556 22.755556-28.444444 56.888889-5.688889 79.644444 22.755556 22.755556 56.888889 28.444444 79.644444 5.688889l364.088889-312.888889c34.133333-28.444444 56.888889-73.955556 56.888889-119.466667s-17.066667-85.333333-51.2-119.466666l-364.088889-329.955556c-11.377778-5.688889-28.444444-11.377778-39.822222-11.377778z"  horiz-adv-x="1024" />

    
    <glyph glyph-name="a-left" unicode="&#59261;" d="M711.111111 867.555556c17.066667 0 28.444444-5.688889 39.82222201-17.066667 22.755556-22.755556 17.066667-56.888889-5.68888901-79.644445l-364.088888-329.955555c-11.377778-11.377778-17.066667-22.755556-17.066667-34.133333 0-11.377778 5.688889-22.755556 17.066667-34.133334L750.933333 59.733333000000016c22.755556-22.755556 28.444444-56.88888901 5.688889-79.644444-22.755556-22.755556-56.88888901-28.444444-79.64444401-5.688889l-364.08888899 312.888889c-34.133333 28.444444-56.888889 73.955556-56.888889 119.466667s17.066667 85.333333 51.2 119.466666l364.088889 329.955556c11.377778 5.688889 28.444444 11.377778 39.822222 11.377778z"  horiz-adv-x="1024" />

    
    <glyph glyph-name="attention-oll" unicode="&#58986;" d="M217.856-61.952a76.8 76.8 0 0 1 73.984-4.864l33.792 15.616H204.8a87.552 87.552 0 0 1 13.056-10.752zM33.536 482.56A70.144 70.144 0 0 1 52.736 409.6l3.072-2.816v108.032a70.144 70.144 0 0 1-22.272-32.256zM520.96 835.5840000000001a71.68 71.68 0 0 1-54.016-25.6h108.032a72.192 72.192 0 0 1-54.016 25.6zM748.032-66.30399999999997a72.704 72.704 0 0 1 33.792-8.448 73.472 73.472 0 0 1 41.728 13.312 67.584 67.584 0 0 1 11.776 10.752h-120.064zM1007.872 483.328a68.608 68.608 0 0 1-20.736 31.232V409.6a69.888 69.888 0 0 1 20.736 73.728zM950.784 532.2239999999999l-242.944 41.984a17.408 17.408 0 0 0-13.056 9.472l-109.824 213.76a72.448 72.448 0 0 1-9.984 13.312h-108.032a59.392 59.392 0 0 1-9.984-13.824l-108.544-213.248a18.176 18.176 0 0 0-13.056-9.728l-240.896-42.752a71.936 71.936 0 0 1-38.656-16.384v-108.288l171.52-153.6a18.688 18.688 0 0 0 5.632-17.152l-45.056-227.584A70.912 70.912 0 0 1 204.8-51.200000000000045h120.32l186.88 90.368a18.432 18.432 0 0 0 15.616 0L715.264-51.200000000000045h120.064a71.168 71.168 0 0 1 17.152 59.392l-43.52 227.072a17.92 17.92 0 0 0 5.376 16.896L986.88 409.6v104.96a71.936 71.936 0 0 1-36.096 17.664z m2.048-83.712l-172.8-157.952a70.144 70.144 0 0 1-21.504-64.256l43.52-226.304a19.456 19.456 0 0 0-7.936-19.2 22.016 22.016 0 0 0-23.04-1.28l-220.416 105.984a68.352 68.352 0 0 1-59.904 0l-220.928-105.984a25.6 25.6 0 0 0-23.296 0 19.456 19.456 0 0 0-8.192 20.48l44.8 226.816a69.888 69.888 0 0 1-21.76 65.024l-174.08 156.16a18.688 18.688 0 0 0-5.12 19.456 21.248 21.248 0 0 0 20.224 13.056l242.944 43.008a69.888 69.888 0 0 1 49.664 36.864l107.264 212.736a22.528 22.528 0 0 0 37.376 0l109.568-213.504a70.656 70.656 0 0 1 49.92-36.608l243.712-41.984a19.712 19.712 0 0 0 16.128-13.312 18.944 18.944 0 0 0-6.144-19.2zM503.808 435.2c-143.104-4.864-179.2-109.312-179.2-113.664a25.6 25.6 0 0 1 16.128-32 22.784 22.784 0 0 1 8.192-1.28 25.6 25.6 0 0 1 24.32 17.152c0 3.072 27.136 75.008 133.376 78.592a25.6 25.6 0 0 1 25.6 25.6 25.6 25.6 0 0 1-28.416 25.6z"  horiz-adv-x="1024" />

    
    <glyph glyph-name="attention-all" unicode="&#58987;" d="M932.352 528.64l-242.944 41.984a44.288 44.288 0 0 0-31.488 23.04l-109.568 213.504a47.104 47.104 0 0 1-82.688 0L358.4 593.664a43.264 43.264 0 0 0-31.232-23.04L82.944 527.36a45.568 45.568 0 0 1-39.168-30.976 44.288 44.288 0 0 1 12.032-46.336L230.4 293.63199999999995a44.544 44.544 0 0 0 13.568-41.216L199.168 25.600000000000023a45.568 45.568 0 0 1 18.432-44.288 51.2 51.2 0 0 1 49.152-3.328l220.928 105.984a42.752 42.752 0 0 0 37.888 0l220.416-105.984a46.848 46.848 0 0 1 48.896 3.328 45.568 45.568 0 0 1 18.432 44.288l-43.52 227.328a43.008 43.008 0 0 0 13.312 40.448l173.056 157.952a44.544 44.544 0 0 1 13.056 46.336 45.056 45.056 0 0 1-36.864 30.976zM491.52 405.248c-107.776-3.584-133.12-76.8-133.376-78.336a25.6 25.6 0 0 0-25.6-17.664 28.672 28.672 0 0 0-7.936 1.28 25.6 25.6 0 0 0-16.384 32.256c1.536 4.608 37.12 108.8 179.2 113.664a25.6 25.6 0 0 0 25.6-25.6 25.6 25.6 0 0 0-21.504-25.6z"  horiz-adv-x="1024" />

    
    <glyph glyph-name="yyycfx" unicode="&#58983;" d="M512 729.6A346.275 346.275 0 1 1 858.6125 384 346.6125 346.6125 0 0 1 512 729.6z m-33.75-125.2125a33.75 33.75 0 1 0 68.68125 0V309.75a33.75 33.75 0 1 0-68.68125 0z m33.75-444.4875A39.31875 39.31875 0 1 0 551.4875 198.375 39.31875 39.31875 0 0 0 512 159.89999999999998zM512 792.54375A409.21875 409.21875 0 1 1 921.55625 384 409.05 409.05 0 0 1 512 792.54375z m0-775.06875A365.85 365.85 0 1 0 878.1875 384 366.35625 366.35625 0 0 0 512 17.475000000000023z"  horiz-adv-x="1024" />

    
    <glyph glyph-name="clyyfx" unicode="&#58984;" d="M153.74375 151.79999999999995v-120.31875a59.90625 59.90625 0 0 1 59.0625-60.58125h607.5a59.90625 59.90625 0 0 1 59.0625 60.58125V731.9625A59.90625 59.90625 0 0 1 819.63125 792.54375h-147.99375l-303.75-1.0125A25.14375 25.14375 0 0 1 360.125 792.54375H212.80625a59.90625 59.90625 0 0 1-59.0625-60.58125z m244.85625 321.975a24.13125 24.13125 0 0 0-16.875 8.1 33.75 33.75 0 0 0-7.25625 18.225 30.20625 30.20625 0 0 0 7.25625 16.875 23.79375 23.79375 0 0 0 16.875 7.59375h59.23125l-55.0125 99.5625a61.425 61.425 0 0 0-7.93125 12.99375 35.775 35.775 0 0 0-3.20625 16.875 39.31875 39.31875 0 0 0 8.26875 19.2375 34.7625 34.7625 0 0 0 22.95 9.45 32.0625 32.0625 0 0 0 17.71875-6.91875 59.56875 59.56875 0 0 0 12.825-13.33125l62.4375-118.125 68.85 118.125a50.625 50.625 0 0 0 12.65625 12.65625 40.5 40.5 0 0 0 17.71875 6.75 69.69375 69.69375 0 0 0 11.30625-1.6875 28.18125 28.18125 0 0 0 9.1125-4.21875 25.3125 25.3125 0 0 0 6.58125-8.60625 49.6125 49.6125 0 0 0 3.88125-14.34375 38.475 38.475 0 0 0-8.26875-23.11875l-63.7875-106.3125h60.4125a23.9625 23.9625 0 0 0 16.875-7.59375 27.84375 27.84375 0 0 0 6.91875-16.875 31.21875 31.21875 0 0 0-7.0875-18.5625 23.625 23.625 0 0 0-16.875-8.4375h-78.46875v-25.81875h78.975a23.2875 23.2875 0 0 0 16.875-8.26875 32.56875 32.56875 0 0 0 6.91875-18.225 31.725 31.725 0 0 0-6.91875-18.39375 23.11875 23.11875 0 0 0-16.875-8.1h-78.975V350.25a33.75 33.75 0 0 0-38.30625-35.94375 41.5125 41.5125 0 0 0-28.18125 8.94375A35.94375 35.94375 0 0 0 478.25 350.25v43.875h-79.65a21.76875 21.76875 0 0 0-16.875 9.61875 41.175 41.175 0 0 0-7.25625 19.2375 30.7125 30.7125 0 0 0 7.25625 16.875 25.14375 25.14375 0 0 0 16.875 7.59375H478.25v26.15625zM301.4 265.875H731.375a32.4 32.4 0 0 0 0-64.8H301.4a32.4 32.4 0 0 0 0 64.8z m0-121.66875h237.09375a32.4 32.4 0 0 0 0-64.8h-236.25a32.4 32.4 0 0 0 0 64.8z m0 0"  horiz-adv-x="1024" />

    
    <glyph glyph-name="czcyxq" unicode="&#58985;" d="M847.475 735.675H178.55A75.6 75.6 0 0 1 103.2875 660.4125v-399.9375a75.6 75.6 0 0 1 75.2625-75.43125h123.35625l50.625 70.70625L427.625 202.25625000000002l-12.4875-16.875h195.58125l-12.4875 16.875 74.5875 53.49375 56.025-70.70625h118.125a75.6 75.6 0 0 1 75.2625 75.43125V660.4125a75.6 75.6 0 0 1-74.75625 75.2625zM330.59375 292.36875a177.01875 177.01875 0 1 0 177.01875 177.01875 177.01875 177.01875 0 0 0-177.01875-177.01875zM613.25 307.38750000000005a14.85 14.85 0 0 0-29.53125 0v139.89375a14.85 14.85 0 0 0 29.53125 0z m72.05625 0a14.68125 14.68125 0 1 0-29.3625 0V494.025a14.68125 14.68125 0 1 0 29.3625 0z m72.225 0a14.85 14.85 0 0 0-29.53125 0v163.6875a14.85 14.85 0 0 0 29.53125 0z m72.05625-1.51875a14.85 14.85 0 0 0-29.53125 0V515.2875a14.85 14.85 0 0 0 29.53125 0z m21.6 238.10625a9.7875 9.7875 0 0 0-9.7875-8.94375h-0.84375a9.61875 9.61875 0 0 0-8.94375 10.4625l2.3625 29.86875a9.1125 9.1125 0 0 0-1.51875-2.025l-75.2625-63.1125a28.0125 28.0125 0 0 0-36.1125 0l-41.34375 33.75a8.60625 8.60625 0 0 1-10.8 0L596.375 486.43125a9.7875 9.7875 0 1 0-12.31875 15.1875l71.8875 58.55625a28.18125 28.18125 0 0 0 35.775 0l41.34375-33.75a8.4375 8.4375 0 0 1 10.8 0L816.59375 586.5h-27.675a9.7875 9.7875 0 0 0 0 19.575h42.01875a23.45625 23.45625 0 0 0 23.2875-24.975zM188 27.600000000000023l113.56875-1.18125 113.7375 158.625h-113.4L188 27.600000000000023zM353.20625 255.75l-51.3-70.70625h113.4l12.4875 17.2125-74.5875 53.49375zM724.45625 26.418750000000045l128.75625 1.18125-124.36875 157.44375h-118.125l113.7375-158.625zM598.23125 202.25625000000002l12.4875-17.2125h118.125l-56.025 70.70625-74.5875-53.49375zM406.53125 588.525h-48.9375v0.84375l-1.6875 13.33125a8.60625 8.60625 0 0 1-8.60625 7.7625h-39.99375a8.775 8.775 0 0 1-8.60625-7.93125l-1.51875-13.33125H251.28125a41.68125 41.68125 0 0 1-40.66875-33.75l-14.00625-64.96875a43.875 43.875 0 0 1-28.51875-40.8375V434.625a43.875 43.875 0 0 1 33.75-42.69375 32.7375 32.7375 0 0 1 0-4.05v-14.34375a27.16875 27.16875 0 1 1 54.3375 0v14.34375 3.0375h145.4625a18.5625 18.5625 0 0 1 0-3.0375v-14.34375a27.16875 27.16875 0 0 1 54.3375 0v14.34375a32.7375 32.7375 0 0 1 0 4.05 43.875 43.875 0 0 1 33.75 42.69375v15.01875A43.875 43.875 0 0 1 461.375 489.80625l-14.00625 64.96875a41.68125 41.68125 0 0 1-40.8375 33.75z m-157.44375-162.50625a18.73125 18.73125 0 1 0 18.73125 18.73125 18.73125 18.73125 0 0 0-18.73125-18.73125z m157.10625 0a18.73125 18.73125 0 1 0 18.73125 18.73125 18.73125 18.73125 0 0 0-18.73125-18.73125z m-190.51875 67.5l12.65625 57.88125A23.625 23.625 0 0 0 251.28125 569.625h155.25a23.625 23.625 0 0 0 22.95-19.06875l12.4875-57.88125z"  horiz-adv-x="1024" />

    
    <glyph glyph-name="cljkgz" unicode="&#58965;" d="M512 545.55a173.7 173.7 0 1 1 173.7-173.7A173.25 173.25 0 0 1 512 545.55z m0 0M887.975 418.65h-14.625a337.5 337.5 0 0 1-13.275 59.85A363.15 363.15 0 0 1 558.125 731.625v16.2a46.35 46.35 0 0 1-45 45 47.25 47.25 0 0 1-46.8-45v-17.55c-8.325-1.35-16.65-2.025-24.975-4.05A366.525 366.525 0 0 1 152 417.975h-15.75a47.025 47.025 0 0 1-33.3-13.95 46.35 46.35 0 0 1 33.3-78.075H152a364.725 364.725 0 0 1 315-315v-13.95a46.125 46.125 0 1 1 92.25 0v14.625a382.5 382.5 0 0 1 95.4 25.875 360 360 0 0 1 218.925 290.025h14.625a45 45 0 1 1 0 92.025z m-104.625-129.825A283.05 283.05 0 1 0 512 655.8a271.35 271.35 0 0 0 110.925-22.5 281.025 281.025 0 0 0 160.2-343.8z m0 0"  horiz-adv-x="1024" />

    
    <glyph glyph-name="clfb" unicode="&#58966;" d="M932.525 114l-86.175 272.475a58.95 58.95 0 0 1-56.25 41.175h-67.5a869.85 869.85 0 0 0-145.35-167.175l-7.2-6.75a81.45 81.45 0 0 0-112.5 0l-8.325 7.65a873.675 873.675 0 0 0-144.9 166.05H233.45a58.5 58.5 0 0 1-56.475-41.85L96.2 119.17499999999995a58.95 58.95 0 0 1 70.875-74.25l182.025 45a58.725 58.725 0 0 0 50.4-9.675l144.45-109.35a58.725 58.725 0 0 1 50.4-10.125l297.45 77.625A59.175 59.175 0 0 1 932.525 114z m0 0M496.7 294a25.875 25.875 0 0 1 35.55 0c63.9 60.75 188.1 173.7 188.1 299.925a206.1 206.1 0 0 1-411.975 0C309.5 467.925 431 357 496.7 294z m17.775 377.1a77.4 77.4 0 0 0 67.5-116.325 77.4 77.4 0 1 0-67.5 116.325z m0 0"  horiz-adv-x="1024" />

    
    <glyph glyph-name="bjgl" unicode="&#58967;" d="M509.975 554.775a209.925 209.925 0 0 1-209.925-209.925v-258.075h423V344.85a209.925 209.925 0 0 1-209.925 209.925zM266.3 429a34.425 34.425 0 0 1-26.775 40.275l-99 19.8a33.975 33.975 0 0 1-40.275-26.775 35.325 35.325 0 0 1 0-11.925 34.425 34.425 0 0 1 27.225-28.35l99-19.8A34.2 34.2 0 0 1 266.3 429z m-22.5 229.5l63-78.975a34.2 34.2 0 0 1 53.55 42.75L296.9 701.25a34.2 34.2 0 0 1-60.525-26.55 33.075 33.075 0 0 1 7.2-16.2z m272.25-29.925a34.425 34.425 0 0 1 35.1 33.525V762.9a34.2 34.2 0 1 1-67.5 1.8v-101.025a55.125 55.125 0 0 1 0-6.075 34.425 34.425 0 0 1 33.075-29.025z m157.5-61.875a34.2 34.2 0 0 1 48.15 3.15l67.5 75.825a34.2 34.2 0 0 1-51.3 45l-67.5-75.825a34.2 34.2 0 0 1 3.15-48.375z m249.075-123.75a34.65 34.65 0 0 1-39.15 28.8l-99.675-15.3a34.2 34.2 0 1 1 10.125-67.5l100.575 15.075a34.425 34.425 0 0 1 28.8 38.925zM797.75 8.475000000000023a48.825 48.825 0 0 0-48.825-48.6H264.5a48.825 48.825 0 1 0 0 97.425h484.425a48.825 48.825 0 0 0 48.825-48.825z m0 0"  horiz-adv-x="1024" />

    
    <glyph glyph-name="czsbwx" unicode="&#58968;" d="M873.152 708.48H148.736A59.52 59.52 0 0 1 89.6 648.96v-532.416A59.52 59.52 0 0 1 148.736 57.60000000000002h724.416a59.904 59.904 0 0 1 59.52 59.52V648.96a59.904 59.904 0 0 1-59.52 59.52z m34.368-566.784a59.328 59.328 0 0 0-59.328-59.328H173.888a59.52 59.52 0 0 0-59.52 59.328v422.4H907.52z m-518.4 85.632l-27.264-5.76-48.768-73.92 9.216-9.024 9.024-9.216 74.304 48.576 5.76 27.072L473.6 265.72799999999995 450.944 288zM656.192 504.96a6.912 6.912 0 0 0 9.408 0 7.104 7.104 0 0 0 1.92-4.608 7.104 7.104 0 0 0-1.92-4.8l-107.328-106.368 16.704-16.704 107.328 106.56a6.528 6.528 0 0 0 9.216 0 6.528 6.528 0 0 0 2.112-4.608 6.528 6.528 0 0 0-2.112-4.8l-107.136-106.368 14.976-14.976 11.328 11.136 91.008 90.24a46.272 46.272 0 0 1 13.632 32.64 45.504 45.504 0 0 1-13.632 32.448 46.656 46.656 0 0 1-65.664 0l-90.432-89.472-11.904-11.904 14.976-14.976z m-153.6-86.4a96 96 0 0 1 1.152 25.536 92.16 92.16 0 0 1-27.072 57.6 94.464 94.464 0 0 1-102.72 20.16l55.104-54.72a20.928 20.928 0 0 0 0-29.952l-23.04-22.656a20.928 20.928 0 0 0-29.952 0l-53.952 53.376a92.736 92.736 0 0 1 72.768-124.224 91.584 91.584 0 0 1 27.072 0l199.104-197.952a55.488 55.488 0 0 1 77.952 0 54.144 54.144 0 0 1 0 76.8z m180.096-256.128a28.8 28.8 0 1 0 8.256 19.2 28.8 28.8 0 0 0-8.256-19.2z m0 0"  horiz-adv-x="1024" />

    
    <glyph glyph-name="dcjk" unicode="&#58969;" d="M759.5 363.83333333999997l-4.5 20.925a13.5 13.5 0 0 1-13.05 11.025h-15.975v4.275a2.925 2.925 0 0 1-2.925 2.475h-12.825a2.925 2.925 0 0 1-2.925-2.475v-4.275h-14.85a13.95 13.95 0 0 1-13.275-11.025l-4.5-20.925a14.85 14.85 0 0 1-9.225-13.275v-4.95a14.175 14.175 0 0 1 11.25-13.725v-6.075a9 9 0 0 1 17.775 0v5.625h47.25v-4.725a8.775 8.775 0 0 1 8.775-8.775 8.55 8.55 0 0 1 8.775 8.775v6.075a13.95 13.95 0 0 1 11.025 13.725v4.95A14.4 14.4 0 0 1 759.5 363.83333333999997z m-69.75-22.5a6.075 6.075 0 1 0 6.075 5.85 6.075 6.075 0 0 0-6.075-5.85z m50.85 0a6.075 6.075 0 1 0 6.075 5.85 6.075 6.075 0 0 0-6.075-5.85z m-61.65 22.5l4.05 18.675a7.65 7.65 0 0 0 7.425 6.3h50.4a7.875 7.875 0 0 0 7.425-6.3l4.05-18.675zM851.525 395.33333334l-36.225 166.95a107.325 107.325 0 0 1-104.175 86.85h-126.225a4.95 4.95 0 0 1 0 1.8l-4.05 34.425a22.5 22.5 0 0 1-22.5 20.25H455.75a22.5 22.5 0 0 1-22.5-20.7l-3.825-34.2v-1.575h-117.9a107.55 107.55 0 0 1-104.4-86.85l-36-166.95a112.5 112.5 0 0 1-73.125-104.85V251.33333333999997a112.5 112.5 0 0 1 88.425-109.8 76.275 76.275 0 0 1 0-10.575V93.83333333999997a69.975 69.975 0 1 1 139.725 0v37.35 7.875h372.15V93.83333333999997a69.75 69.75 0 1 1 139.5 0v37.35a77.175 77.175 0 0 1 0 10.575A112.5 112.5 0 0 1 924.425 251.33333333999997v39.15a112.5 112.5 0 0 1-72.9 104.85z m-545.4-164.025A47.925 47.925 0 1 0 354.5 279.23333333999994a47.925 47.925 0 0 0-48.375-47.925z m465.75 40.275h-109.8c0 9 13.725 16.65 33.3 20.025a67.5 67.5 0 1 0 41.4 0c20.475-2.925 35.1-10.8 35.1-20.025z m-49.275 185.625a117.9 117.9 0 0 1-103.95-54.225H219.5l32.175 148.725a60.75 60.75 0 0 0 58.95 49.05h400.5a60.975 60.975 0 0 0 58.95-49.05l27.225-126.225a117 117 0 0 1-74.7 31.725z"  horiz-adv-x="1024" />

    
    <glyph glyph-name="czsbfx" unicode="&#58970;" d="M138.21875 297.76874999999995v-157.95h792.1125v157.95zM163.19375 181.5a10.63125 10.63125 0 0 0 0 21.2625 10.4625 10.4625 0 0 0 10.4625-10.63125 10.63125 10.63125 0 0 0-10.4625-10.63125z m-4.725 30.0375a4.55625 4.55625 0 0 0 4.725 4.55625 4.3875 4.3875 0 0 0 4.55625-4.55625 4.725 4.725 0 1 0-9.28125 0z m16.875 30.88125H150.5375v11.64375h25.14375z m260.2125-80.49375H191.375v118.125h244.51875z m18.05625 29.3625a10.125 10.125 0 0 0-10.125 9.95625 10.63125 10.63125 0 0 0 2.86875 7.25625 10.4625 10.4625 0 0 0 7.25625 3.0375 10.125 10.125 0 0 0 9.95625-10.29375 9.95625 9.95625 0 0 0-2.86875-7.0875 10.29375 10.29375 0 0 0-7.0875-2.86875z m0 31.21875a9.95625 9.95625 0 0 0-9.1125 4.89375 10.29375 10.29375 0 0 0 0 10.29375 10.29375 10.29375 0 1 0 16.875-12.31875 10.29375 10.29375 0 0 0-7.0875-2.86875z m0 31.05a10.125 10.125 0 1 0 0 20.25 9.95625 9.95625 0 0 0 9.95625-9.95625 9.61875 9.61875 0 0 0-2.86875-7.25625 9.45 9.45 0 0 0-7.0875-3.0375z m46.2375-57.7125h-28.51875v10.96875h28.85625z m0 31.21875h-28.51875v10.96875h28.85625z m0 31.21875h-28.51875v10.96875h28.85625zM866.375 183.01874999999995a44.8875 44.8875 0 0 0-44.71875 45.05625A44.8875 44.8875 0 1 0 866.375 183.01874999999995z m0 0M893.0375 228.07500000000005A26.325 26.325 0 0 0 866.375 201.75a25.81875 25.81875 0 0 0-18.5625 7.7625 26.325 26.325 0 0 0-7.59375 18.5625 26.6625 26.6625 0 0 0 12.99375 23.45625 26.15625 26.15625 0 0 0 39.4875-23.45625zM866.375 241.23749999999995a13.1625 13.1625 0 1 1 13.1625-12.99375 12.99375 12.99375 0 0 1-13.1625 12.99375z m-74.75625 286.875a67.5 67.5 0 0 1-4.725 95.85l9.28125 7.93125a78.80625 78.80625 0 0 0 4.725-112.89375z m-15.69375 14.00625l-9.1125 7.93125a33.75 33.75 0 0 1 9.7875 27 33.75 33.75 0 0 1-14.85 24.6375l9.28125 8.1a45.05625 45.05625 0 0 0 17.71875-35.94375 46.06875 46.06875 0 0 0-12.825-31.725z m-37.8 33.91875a9.1125 9.1125 0 0 0 18.05625 0v-114.75H738.125v114.75z m-27-2.86875a33.75 33.75 0 0 1 12.99375-26.325l-9.28125-8.1a45.73125 45.73125 0 0 0 2.19375 70.5375l9.1125-8.26875a33.75 33.75 0 0 1-15.01875-27.84375z m-32.90625 0a67.5 67.5 0 0 1 20.925-48.43125l-9.28125-7.93125a78.975 78.975 0 0 0 2.025 114.58125l9.1125-8.1a67.5 67.5 0 0 1-22.78125-50.625z m162.3375-111.88125H342.2375a128.925 128.925 0 0 0-178.2-120.31875l-25.81875-39.4875h792.1125z m0 0M213.14375 575.025A113.7375 113.7375 0 1 1 326.375 461.2875a113.4 113.4 0 0 1-112.89375 113.7375z m83.19375-162a104.45625 104.45625 0 0 0-12.31875-16.875 22.275 22.275 0 0 1-25.14375-5.4 23.2875 23.2875 0 0 1-6.58125-16.875 8.26875 8.26875 0 0 1 0-2.025 98.2125 98.2125 0 0 0-23.79375-7.7625A22.44375 22.44375 0 0 1 184.625 367.125a94.1625 94.1625 0 0 0-25.3125 11.98125 29.86875 29.86875 0 0 1 1.35 6.75 22.78125 22.78125 0 0 1-22.78125 22.78125 20.75625 20.75625 0 0 1-6.4125-1.35 102.09375 102.09375 0 0 0-12.15 25.65 22.44375 22.44375 0 0 1-2.3625 44.38125 92.30625 92.30625 0 0 0 9.28125 27.675 19.2375 19.2375 0 0 1 11.64375-3.88125 22.95 22.95 0 0 1 22.78125 22.95 23.625 23.625 0 0 1-5.7375 14.85 90.28125 90.28125 0 0 0 18.5625 11.1375 23.11875 23.11875 0 0 1 25.3125-14.175 23.45625 23.45625 0 0 1 19.2375 21.9375A102.09375 102.09375 0 0 0 242 552.75a16.875 16.875 0 0 1-1.18125-6.58125 23.11875 23.11875 0 0 1 23.11875-23.11875 22.10625 22.10625 0 0 1 16.875 6.75 93.99375 93.99375 0 0 0 12.4875-14.85 23.45625 23.45625 0 0 1-3.7125-23.625 22.78125 22.78125 0 0 1 19.06875-14.175 96.01875 96.01875 0 0 0 1.6875-16.875v-6.075a22.78125 22.78125 0 0 1-21.9375-22.95 22.95 22.95 0 0 1 9.61875-18.73125z m0 0M267.65 452.85a11.64375 11.64375 0 0 1 8.1 10.4625 11.30625 11.30625 0 0 1-15.69375 11.30625v3.0375a37.63125 37.63125 0 0 1-5.56875 7.59375h1.18125a11.8125 11.8125 0 0 1 0 21.2625 11.1375 11.1375 0 0 1-15.35625-6.4125 54 54 0 0 1-8.60625 4.89375 11.8125 11.8125 0 0 1-1.18125 14.00625 11.475 11.475 0 0 1-19.9125-8.775 43.5375 43.5375 0 0 1-12.31875-1.85625 12.4875 12.4875 0 0 1-6.91875 6.75 11.98125 11.98125 0 0 1-15.525-5.7375 10.96875 10.96875 0 0 1 0-8.94375 8.4375 8.4375 0 0 1 2.19375-3.7125 49.275 49.275 0 0 1-7.0875-8.60625 10.63125 10.63125 0 0 1-9.28125 0 11.64375 11.64375 0 0 1-6.75-5.90625 11.8125 11.8125 0 0 1 0-10.125 11.30625 11.30625 0 0 1 8.1-5.90625 47.5875 47.5875 0 0 1 0-14.68125H162.6875a11.8125 11.8125 0 0 1-6.75-15.01875 11.1375 11.1375 0 0 1 6.075-6.58125 10.96875 10.96875 0 0 1 8.60625 0l2.19375 1.18125a42.8625 42.8625 0 0 1 10.125-9.7875 14.175 14.175 0 0 1 3.375-23.11875 11.30625 11.30625 0 0 1 11.98125 2.7 11.30625 11.30625 0 0 1 2.7 11.98125 44.04375 44.04375 0 0 1 14.175-1.51875 5.4 5.4 0 0 1 0-2.3625 11.30625 11.30625 0 0 1 14.68125-6.91875 11.64375 11.64375 0 0 1 6.75 5.90625 12.65625 12.65625 0 0 1 0 8.94375V417.75a49.10625 49.10625 0 0 1 9.7875 7.93125 11.30625 11.30625 0 0 1 14.34375-6.24375 11.8125 11.8125 0 0 1-3.20625 22.78125 44.71875 44.71875 0 0 1 2.7 10.63125 11.30625 11.30625 0 0 1 7.0875 0zM212.3 424.5a35.94375 35.94375 0 0 0-35.94375 36.28125 35.94375 35.94375 0 1 0 35.94375-36.28125z m0 57.54375A21.2625 21.2625 0 0 1 191.375 460.78125a20.925 20.925 0 1 1 41.85 0 21.6 21.6 0 0 1-21.2625 21.2625z m0 0"  horiz-adv-x="1024" />

    
    <glyph glyph-name="gjhf" unicode="&#58971;" d="M845 316.5H561.725L647 431.025a186.975 186.975 0 0 1 80.325 107.325l2.475 3.15h-1.8a180 180 0 0 1 7.2 48.15 187.65 187.65 0 0 1-375.3 0 180 180 0 0 1 6.975-48.15l1.125-1.575a186.075 186.075 0 0 1 64.8-97.2L515.6 316.5H120.95a22.5 22.5 0 0 1 0-45H845a26.55 26.55 0 0 0 25.425-27.9v-6.525a26.55 26.55 0 0 0-25.425-27.9H219.5a73.8 73.8 0 0 1 0-147.6h525.6a22.5 22.5 0 1 1 0 45H219.5a28.125 28.125 0 0 0 0 56.025h625.5a72.675 72.675 0 0 1 72 74.475v6.525A72.675 72.675 0 0 1 845 316.5zM469.475 581.1a78.075 78.075 0 1 0 78.075-77.85 78.075 78.075 0 0 0-78.075 77.85z"  horiz-adv-x="1024" />

    
    <glyph glyph-name="ysrlcx" unicode="&#58972;" d="M258.56 256.08000000000004a24 24 0 0 0-16.56-29.52 523.44 523.44 0 0 1-51.36-17.76l12.24-24a24 24 0 0 1 39.6-1.92l60.24 93.36a24 24 0 0 1-18.24 35.76l-110.88 5.04a22.56 22.56 0 0 1-21.6-33.12l16.56-32.64a523.68 523.68 0 0 0 60 21.36 24 24 0 0 0 30-16.56zM502.4 199.44000000000005a26.88 26.88 0 0 1 36.96 0c66.96 63.6 196.56 181.44 196.56 312a216 216 0 1 1-430.08 0c0-130.8 127.92-247.44 196.56-312z m-60 326.64a80.64 80.64 0 1 0 52.08-89.28 80.88 80.88 0 0 0-52.08 89.28zM800 272.64a24 24 0 0 1-13.2-46.32c96-27.12 128.4-60.96 128.4-82.08 0-48-152.4-115.2-400.56-115.2S113.36 96 113.36 144c0 16.8 21.36 41.52 77.28 64.56l-21.84 42.72C102.08 222.72000000000003 65.36 185.76 65.36 144c0-106.08 231.12-163.2 448.8-163.2s448.56 57.36 448.56 163.2c0 53.76-56.4 97.92-162.72 128.64zM224 216.06399999999996a25.6 25.6 0 0 1 17.664 31.488 25.6 25.6 0 0 1-31.744 17.664 558.592 558.592 0 0 1-64-22.784l23.296-45.312a558.336 558.336 0 0 0 54.784 18.944z"  horiz-adv-x="1024" />

    
    <glyph glyph-name="hyzl" unicode="&#58973;" d="M926.72 289.67999999999995h-48a89.52 89.52 0 0 1-2.88 24l-48 283.44a90.24 90.24 0 0 1-87.36 66.96H281.12a90.24 90.24 0 0 1-87.36-66.96l-48-283.44a89.52 89.52 0 0 1-2.88-24h-48a24 24 0 0 1-24-24v-40.08a24 24 0 0 1 24-24h831.84a24 24 0 0 1 24 24V264a24 24 0 0 1-24 25.68z m-552 203.04h-48.96v-144H288.8v144h-48v30.24h134.4z m126.24-144H399.2v174.24h98.4v-30.24h-61.68v-40.8h57.36v-30h-57.36v-41.76h65.52z m135.84 0L606.32 408a44.16 44.16 0 0 0-3.6 11.28 78.72 78.72 0 0 0-3.84-11.52l-31.2-57.12h-44.64l55.44 86.64-50.64 86.4h44.88l25.92-53.04a108.72 108.72 0 0 0 5.28-14.16 133.44 133.44 0 0 0 5.76 14.88l28.32 52.32H680l-52.32-85.92 53.76-87.12z m110.64 0h-36.48v174.24h36.96z"  horiz-adv-x="1024" />

    
    <glyph glyph-name="spgl" unicode="&#58974;" d="M629.9 72.82500000000005a376.65 376.65 0 1 1-233.1-1.575c-110.25-18.675-187.425-61.875-187.425-112.5h618.975c0 52.425-82.35 96.525-198.45 114.075zM282.725 339A228.375 228.375 0 1 0 512 111.29999999999995 228.15 228.15 0 0 0 282.725 339zM501.65 318.29999999999995m-49.275 0a49.275 49.275 0 1 1 98.55 0 49.275 49.275 0 1 1-98.55 0Z"  horiz-adv-x="1024" />

    
    <glyph glyph-name="qyyjzl" unicode="&#58975;" d="M827 673.35H191.375a103.95 103.95 0 0 1-103.95-103.95V330h80.1L242 413.7v1.125l1.125 1.35s2.25 1.125 3.15 2.025a34.875 34.875 0 0 0 4.95 2.7 19.35 19.35 0 0 0 5.175 1.35 20.475 20.475 0 0 0 5.175 0 22.5 22.5 0 0 0 5.4 0 22.5 22.5 0 0 0 5.175-1.35 53.775 53.775 0 0 0 4.95-2.7 24.75 24.75 0 0 0 3.15-2.025v-1.35l1.575-1.125 112.5-128.025 212.85 140.4a34.65 34.65 0 0 0 4.275 1.8 63.9 63.9 0 0 0-1.575 14.85A73.35 73.35 0 0 0 647 505.05l-17.775 28.8a67.5 67.5 0 0 0-7.65 30.15 65.025 65.025 0 1 0 122.625-30.15l-18.225-29.7a73.575 73.575 0 1 0-82.35-121.725 23.85 23.85 0 0 0-3.375-3.375l-232.65-153.675a29.7 29.7 0 0 0-15.525-4.5 27.675 27.675 0 0 0-16.875 6.525 29.925 29.925 0 0 0-7.425 5.4L262.25 352.275l-60.75-69.075a28.35 28.35 0 0 0-21.15-9.675 18 18 0 0 0-3.375 0 15.75 15.75 0 0 0-3.15 0H87.425v-97.65a103.95 103.95 0 0 1 103.95-103.95h411.75a175.725 175.725 0 1 0 327.15 115.425v382.5A103.95 103.95 0 0 1 827 673.35zM685.7 406.5a36 36 0 0 1 36 36 35.1 35.1 0 0 1-15.525 28.8l-19.575-31.95-20.025 33.075a35.55 35.55 0 0 1-17.1-29.925 36.225 36.225 0 0 1 36.225-36zM686.6 530.025a37.125 37.125 0 1 1-36.9 36.9 36.9 36.9 0 0 1 36.9-36.9zM689.75 586.5a18.9 18.9 0 0 0 15.525-22.5 18.9 18.9 0 1 0-15.525 22.5zM757.25 285.225a128.7 128.7 0 1 1 128.7-128.7 128.925 128.925 0 0 1-128.7 128.7z m-62.325-207.45a9.45 9.45 0 0 0-6.75 15.975l65.7 65.25-65.25 58.95a9.225 9.225 0 0 0 0 13.275 9.45 9.45 0 0 0 13.275 0l72-65.025a9.45 9.45 0 0 0 0-13.275l-72.9-72.9a9 9 0 0 0-6.075-2.25z m145.8 76.05l-72.675-72.675a9.675 9.675 0 0 0-6.75-2.925 8.775 8.775 0 0 0-6.525 2.925 9 9 0 0 0 0 13.275L820.475 159l-65.475 59.85a9.45 9.45 0 0 0 0 13.275 9.225 9.225 0 0 0 13.275 0l72.225-64.8a9.45 9.45 0 0 0 0.225-13.5z"  horiz-adv-x="1024" />

    
    <glyph glyph-name="tsclcz" unicode="&#58976;" d="M849.5 466.35a343.575 343.575 0 1 1-540-281.025l-135-135 93.6-6.3 10.575-97.875 180 180a337.5 337.5 0 0 1 47.925-3.825 335.925 335.925 0 0 1 47.925 3.825l180-180 8.1 95.4 96.075 8.775-135 135A342.675 342.675 0 0 1 849.5 466.35zM505.925 148.20000000000005A319.95 319.95 0 1 0 827 468.15a320.175 320.175 0 0 0-321.075-319.95zM505.925 753.225a285.075 285.075 0 1 1 285.3-285.075A285.3 285.3 0 0 1 505.925 753.225z m151.2-423A27 27 0 0 0 617.3 294l-36.45 39.6a157.5 157.5 0 0 0-75.15-15.975 160.425 160.425 0 1 0 118.8 47.25z"  horiz-adv-x="1024" />

    
    <glyph glyph-name="zhtjfx" unicode="&#58977;" d="M884.5312 733.86666666H150.9376a55.0912 55.0912 0 0 1-55.0912-54.8864v-512.6144a55.296 55.296 0 0 1 55.0912-55.0912h733.5936a55.0912 55.0912 0 0 1 54.8864 55.0912V679.79946666A54.8864 54.8864 0 0 1 884.5312 733.86666666m0-550.0928a18.432 18.432 0 0 0-18.432-18.2272h-696.32a18.2272 18.2272 0 0 0-18.2272 18.2272V661.36746666a18.432 18.432 0 0 0 18.2272 18.432h696.32a18.6368 18.6368 0 0 0 18.432-18.432z m-389.12 217.2928v193.9456c-100.9664 0-178.7904-87.8592-178.7904-190.8736a184.32 184.32 0 0 1 186.1632-184.32 180.8384 180.8384 0 0 1 186.368 179.8144h-193.9456m30.1056 222.8224c1.4336 0 0-192.7168 0-192.7168h194.7648a199.2704 199.2704 0 0 1-194.7648 192.7168M723.5584 60.48426666h-411.648a27.2384 27.2384 0 1 1 0-54.4768h411.648a27.2384 27.2384 0 0 1 0 54.4768"  horiz-adv-x="1024" />

    
    <glyph glyph-name="wlfw" unicode="&#58978;" d="M889.84917333 380.06328887999996a358.37997511 358.37997511 0 0 1-39.14683733 163.11182223 795.75267555 795.75267555 0 0 1 23.30168888 76.89557333c28.89409422 108.81888711-37.748736 173.13154845-139.81013333 163.11182222A565.29897245 565.29897245 0 0 1 556.63502222 733.54990933h-13.51497956a349.52533333 349.52533333 0 0 1-342.53482666-290.33904356 553.648128 553.648128 0 0 0 176.160768 159.15053511 1278.09763555 1278.09763555 0 0 1-178.49093689-229.28861867l-3.02921956-4.194304a609.10614755 609.10614755 0 0 1-75.96350577-213.909504c-15.84514845-103.92553245 35.88460089-159.15053511 145.16952177-144.93650488a564.59992178 564.59992178 0 0 1 125.36308623 48.234496 340.20465778 340.20465778 0 0 1 152.8590791-35.651584 347.89421511 347.89421511 0 0 1 327.85476267 235.34705778h-188.74368a154.25718045 154.25718045 0 0 0-290.10602667 69.90506666h495.1608889a375.85624178 375.85624178 0 0 1 3.02921955 48.46751289zM265.82994488 40.790698659999975c-58.720256-6.291456-134.45074489 59.65232355-48.234496 212.51140267a353.71963733 353.71963733 0 0 1 145.16952178-174.29663289 316.669952 316.669952 0 0 0-96.93502578-38.21476978z m128.1592889 396.12871111a154.72321422 154.72321422 0 0 0 307.11625955 0zM673.14346666 706.28693333c145.16952178 69.90506667 199.69547378-4.89335467 183.85032534-80.85686045a411.041792 411.041792 0 0 0-17.47626667-62.44852622A351.85550222 351.85550222 0 0 1 673.14346666 709.31615288z m0 0"  horiz-adv-x="1024" />

    
    <glyph glyph-name="xxfwgl" unicode="&#58979;" d="M863.6416 443.1872l-37.4784 173.2608a111.4112 111.4112 0 0 1-108.1344 89.9072h-130.8672v2.048l-4.5056 35.6352a23.3472 23.3472 0 0 1-22.7328 20.48h-106.496a23.3472 23.3472 0 0 1-22.9376-20.48l-3.8912-35.4304v-1.6384h-122.88a111.616 111.616 0 0 1-108.3392-89.9072l-37.0688-173.8752A116.5312 116.5312 0 0 1 81.92 334.4384v-40.96a117.3504 117.3504 0 0 1 91.7504-113.8688 62.8736 62.8736 0 0 1-1.2288-10.8544v-38.2976a72.4992 72.4992 0 0 1 144.7936 0v39.1168a52.8384 52.8384 0 0 1 0 7.9872h387.6864a52.8384 52.8384 0 0 1 0-7.9872v-38.2976a72.4992 72.4992 0 0 1 144.7936 0v38.2976a62.8736 62.8736 0 0 1-1.2288 10.8544 117.1456 117.1456 0 0 1 91.5456 113.8688v40.96a116.3264 116.3264 0 0 1-76.3904 107.9296z m-620.9536 162.2016a63.0784 63.0784 0 0 0 61.44 50.7904h413.9008a62.6688 62.6688 0 0 0 61.44-50.7904l33.3824-154.2144H209.5104z m55.5008-332.1856A49.7664 49.7664 0 1 0 348.16 322.55999999999995a49.7664 49.7664 0 0 0-49.9712-49.3568z m368.64 49.7664A49.7664 49.7664 0 1 0 716.8 273.20320000000004 49.7664 49.7664 0 0 0 667.0336 322.55999999999995z"  horiz-adv-x="1024" />

    
    <glyph glyph-name="yjyccx" unicode="&#58980;" d="M509.3 806.55a425.25 425.25 0 1 1 425.025-425.25 425.7 425.7 0 0 1-425.025 425.25z m0-816.3a391.275 391.275 0 1 0 391.05 391.05A391.725 391.725 0 0 0 509.3-9.75z m0 733.275a342.225 342.225 0 1 1 342-342.225 342.225 342.225 0 0 1-342 342.225z m130.05-341.1v-48.375h-102.375v-27.675h102.375v-46.125h-102.375v-84.825h-54.45V260.25h-103.05v46.125h103.05v27.675h-103.05v48.375h81.45l-101.025 186.075h60.75l73.35-137.475c6.3-11.475 11.025-22.5 14.85-30.375 4.05 8.55 9.225 19.575 15.975 32.625l69.525 135h64.125L557 382.42499999999995z m0 0"  horiz-adv-x="1024" />

    
    <glyph glyph-name="zlclcx" unicode="&#58981;" d="M517.76 809.04A324.48 324.48 0 0 1 193.28 484.8c0-179.28 324.48-540.72 324.48-540.72S842.24 305.52 842.24 484.8A324.24 324.24 0 0 1 517.76 809.04z m0-588a264 264 0 1 0 264 264 264 264 0 0 0-264-264z m0 0M351.2 353.76l34.56-18.96c14.64 32.16 30.24 70.08 43.2 105.6l-30.24 19.68a950.88 950.88 0 0 0-48-106.32z m0 0M418.16 517.44a236.88 236.88 0 0 1-52.56 30.72l-19.2-29.04a243.6 243.6 0 0 0 51.6-34.08z m0 0M380.48 636l-20.4-28.08a210.48 210.48 0 0 0 50.4-36.72l21.84 30.72a222.96 222.96 0 0 1-51.84 34.08z m0 0M625.76 633.36h-36.72V600H560V636h-35.76V600h-25.68V633.36h-36.72V600h-28.32v-34.56h28.32v-33.12h36.72v33.36h25.68v-30.96H560v30.96h28.08v-32.88h36.72v32.88h31.68V600h-30.72z m0 0M433.52 448.8h24v-96h36.48v67.2h30.72v-90.24H560V420h33.6v-32.4c0-3.6-1.2-4.08-4.32-4.08h-22.56a121.92 121.92 0 0 0 9.12-32.88 91.44 91.44 0 0 1 41.76 5.76c10.32 5.28 12.72 14.16 12.72 30.24V448.8h22.32v69.12h-219.12zM560 484.32h54.48v-30.96H560z m-91.2 0h54v-30.96h-53.04z m0 0"  horiz-adv-x="1024" />

    
    <glyph glyph-name="attention" unicode="&#58982;" d="M913.85 467.025a39.6 39.6 0 0 1-32.4 27.225l-232.425 40.275-105.075 204.525a41.4 41.4 0 0 1-72.675 0l-103.95-204.525-232.425-41.4a40.05 40.05 0 0 1-34.425-27.225 38.925 38.925 0 0 1 10.575-40.725l169.65-152.1-43.65-220.95a40.05 40.05 0 0 1 16.2-38.925 45 45 0 0 1 43.2-2.925l210.825 101.25 210.375-101.25a41.175 41.175 0 0 1 42.975 2.925 40.05 40.05 0 0 1 16.2 38.925l-42.3 220.95 167.85 153.225a39.15 39.15 0 0 1 11.475 40.725z m0 0"  horiz-adv-x="1024" />

    
    <glyph glyph-name="dingwei" unicode="&#58897;" d="M517.81852213-38.50693359000002c0 0-294.01259766 375.14970703-294.01259766 535.9649414 0 160.78710938 131.64697266 291.13857422 294.01259766 291.13857422 162.35068359 0 293.98974609-130.33564453 293.98974609-291.13857422-0.00175781-160.82050781-293.98974609-535.96494141-293.98974609-535.9649414v0zM514.76783853 621.3530273399999c-69.10400391 0-125.14746094-55.48535156-125.14746093-123.95830078 0-68.43427734 56.03466797-123.92138672 125.14746093-123.92138672 69.14179687 0 125.16064453 55.48535156 125.16064454 123.92138672 0 68.45361328-56.01445313 123.95830078-125.16064454 123.95830078v0z"  horiz-adv-x="1024" />

    
    <glyph glyph-name="qingchu" unicode="&#58928;" d="M808.31259918 384h-29.66926575l66.7048645-353.336792c0-21.62315369-16.61750794-39.25415039-37.03559875-39.25415038H215.78627776c-20.39955139 0-37.01396943 17.6309967-37.01396941 39.25415039L245.35666656 384h-29.66926574c-20.41809083 0-37.03868867 17.61863708-37.03868866 39.26651001v39.23870087c0 21.62315369 16.61750794 39.23561096 37.03868866 39.23561097h222.21359254V698.0980911300001c0 43.40389253 33.11450958 78.49285126 74.02484893 78.49285125 40.91960907 0 74.05265808-35.08895874 74.05265808-78.49285125v-196.35417939h222.24140167c20.39955139 0 37.01087951-17.61554718 37.01087952-39.23561096v-39.23870086c0.12050628-21.65096284-16.3425064-39.26959991-36.91818237-39.26959992zM215.78627776 30.663208000000054H328.08886719a20.33157349 20.33157349 0 0 0-2.95085907 14.22592164l22.59338379 174.6043396c1.85394287 10.64781189 11.39556885 17.74841309 21.51809691 15.93772888 10.12870789-1.81686401 16.71638489-12.03826904 15.00457764-22.7911377l-22.44815826-174.60433959a22.31529236 22.31529236 0 0 0-2.83344269-7.49301911h449.60895539L734.29084016 384H289.80803681L215.78627776 30.663208000000054zM549.06031799 698.0980911300001c0 21.65096284-16.61132813 39.25415039-36.98616028 39.25415039-20.41809083 0-37.03868867-17.60318756-37.03868866-39.25415039v-196.35417939h74.02484894V698.0980911300001z m259.2522812-235.59288025H215.78627776v-39.23870087h592.52941133v39.23870087h-0.0030899z"  horiz-adv-x="1024" />

    
    <glyph glyph-name="excel" unicode="&#58964;" d="M527.75 733.9125v122.5875l-488.25-128.4675v-619.5l488.25-128.4675v122.535h360.15v631.3125h-360.15M527.75 273.6975h91.35v-76.7025h-91.35v76.755M527.75 397.65h91.35v-76.65h-91.35v76.7025M527.75 521.6025h91.35v-76.7025h-91.35v76.7025M527.75 645.5025h91.35v-76.7025h-91.35v76.7025M676.325 273.8025h113.925v-76.7025h-113.925v76.65M676.325 397.65h113.925v-76.65h-113.925v76.7025M676.325 521.6025h113.925v-76.7025h-113.925v76.7025M676.325 645.5025h113.925v-76.7025h-113.925v76.7025M227.45 547.3275l59.325-90.5625 61.95 96.285 50.925 2.3625-86.1-132.6675 92.4-142.7475-55.65 2.625-65.1 104.16-66.15-97.965-52.5 2.4675 92.925 131.25-86.625 122.1675 54.6 2.52M227.45 547.2225000000001zM984.5-42.14250000000004h-202.125v75.0225h202.125v-75.0225zM685.775-6.022500000000036l96.6 87.99v-170.4675l-96.6 82.4775z"  horiz-adv-x="1024" />

    
    </font>
</defs>
</svg>
